<svg version="1.1" id="Layer_1" xmlns="http://www.w3.org/2000/svg" xmlns:xlink="http://www.w3.org/1999/xlink" x="0px" y="0px"
	 width="100%" viewBox="0 0 670 596" enable-background="new 0 0 670 596" xml:space="preserve">







<path fill="currentColor" opacity="1.000000" stroke="none" 
	d="
M337.571533,0.999997 
	C338.337982,1.994319 338.377258,3.321839 339.058868,3.932867 
	C348.897797,12.753214 359.029297,21.256807 368.675476,30.280182 
	C380.785126,41.607948 392.575287,53.280697 404.376556,64.932930 
	C408.977661,69.475845 413.264496,74.340019 417.634674,79.112579 
	C419.891876,81.577599 419.698334,83.308983 416.509827,85.261223 
	C407.612030,90.709145 398.997253,96.617043 390.210052,102.248672 
	C384.026093,106.211929 377.623016,109.842567 371.537476,113.947418 
	C365.349487,118.121384 359.354065,122.594070 353.416809,127.122726 
	C348.073425,131.198395 343.038391,135.686737 337.596771,139.618607 
	C336.413452,140.473618 333.533844,140.477417 332.358765,139.615128 
	C321.047974,131.315216 310.052795,122.584061 298.715729,114.321503 
	C293.022278,110.172035 286.776398,106.786522 280.843353,102.957893 
	C276.523834,100.170486 272.347900,97.160751 268.033203,94.365578 
	C264.110596,91.824417 260.232605,89.150177 256.072693,87.055321 
	C250.400467,84.198883 249.786835,81.855331 254.046234,77.440941 
	C260.913025,70.324303 267.546387,62.976120 274.557739,56.006828 
	C285.643524,44.987553 296.844086,34.077328 308.219238,23.357765 
	C316.143585,15.890124 324.441589,8.818987 332.286316,1.285365 
	C333.714355,1.000000 335.428711,1.000000 337.571533,0.999997 
z"/>




<path fill="currentColor" opacity="1.000000" stroke="none" 
	d="
M591.466125,597.000000 
	C586.247314,591.764099 581.651855,586.373535 576.697083,581.336426 
	C571.902344,576.461975 566.854980,571.816345 561.692322,567.330688 
	C558.549194,564.599731 554.851074,562.515625 551.631348,559.862976 
	C547.668518,556.598083 544.079712,552.876282 540.089844,549.647888 
	C530.569946,541.945007 520.992249,534.308167 511.280731,526.849243 
	C502.900970,520.413147 494.477753,514.005432 485.757233,508.048584 
	C476.066620,501.429047 466.126068,495.155640 456.095978,489.057892 
	C444.470245,481.990082 432.661652,475.220032 420.869598,468.429871 
	C412.423889,463.566620 404.055847,458.515747 395.326447,454.211121 
	C384.193115,448.721130 372.728302,443.903717 361.418274,438.770233 
	C360.994751,438.578003 360.695648,438.111725 359.498749,436.976929 
	C371.150787,433.197052 382.236633,429.578430 393.339447,426.012726 
	C396.694794,424.935150 400.081116,423.944794 403.481476,423.018127 
	C411.658020,420.789825 419.810242,418.451355 428.049225,416.478699 
	C436.502533,414.454712 445.024353,412.686951 453.574554,411.127014 
	C454.999390,410.867065 457.145813,411.818573 458.239990,412.922638 
	C467.221008,421.984924 475.993408,431.253357 484.907776,440.382355 
	C490.895325,446.514008 497.274445,452.283051 503.005798,458.640350 
	C511.159393,467.684540 519.006897,477.014709 526.748352,486.417633 
	C534.526123,495.864624 542.150818,505.445587 549.586914,515.163452 
	C556.004639,523.550415 562.040710,532.228638 568.287781,540.747131 
	C573.068970,547.266724 578.133118,553.590454 582.671570,560.272949 
	C587.060791,566.735718 590.841614,573.608154 595.071533,580.183716 
	C598.575989,585.631653 602.345154,590.909302 605.998535,596.631226 
	C601.310730,597.000000 596.621521,597.000000 591.466125,597.000000 
z"/>






<path fill="currentColor" opacity="1.000000" stroke="none" 
	d="
M65.463181,597.000000 
	C65.997368,594.670837 66.726280,592.176147 68.041656,590.043030 
	C72.250061,583.218384 76.567757,576.455017 81.047195,569.805298 
	C85.835045,562.697754 90.850243,555.743164 95.774429,548.727661 
	C99.826752,542.954224 103.722366,537.060974 107.986450,531.448059 
	C115.942123,520.975830 124.083145,510.643463 132.207886,500.300720 
	C138.435898,492.372528 144.538620,484.329865 151.102570,476.686340 
	C156.987808,469.833160 163.498123,463.520660 169.597092,456.845734 
	C174.125336,451.889893 178.223892,446.529816 182.888916,441.713074 
	C192.503021,431.786255 202.333023,422.066895 212.188583,412.378510 
	C213.083054,411.499176 214.949234,410.851501 216.121399,411.127502 
	C229.225845,414.212799 242.332794,417.312836 255.337799,420.787903 
	C267.989990,424.168701 280.532318,427.963074 293.107361,431.629181 
	C298.767700,433.279388 304.390289,435.059296 311.528870,437.237762 
	C303.036713,441.279205 295.994934,444.629211 288.954224,447.981506 
	C282.339783,451.130859 275.672150,454.174347 269.126556,457.460846 
	C260.996613,461.542755 252.885742,465.677246 244.920593,470.068298 
	C238.055237,473.853027 231.384842,477.994568 224.666275,482.041504 
	C216.834869,486.758820 208.859039,491.268921 201.283539,496.370331 
	C191.628784,502.871948 182.295502,509.852631 172.855850,516.671448 
	C166.573456,521.209534 160.165085,525.599121 154.134689,530.454651 
	C142.242538,540.029846 130.858673,550.255493 118.733139,559.516357 
	C106.450485,568.897156 95.216232,579.343567 84.282082,590.185059 
	C82.088242,592.360291 79.717316,594.356934 77.714020,596.717957 
	C73.975456,597.000000 69.950912,597.000000 65.463181,597.000000 
z"/>






<path fill="currentColor" opacity="1.000000" stroke="none" 
	d="
M31.464653,597.000000 
	C31.779343,593.391724 32.129322,589.621948 33.414654,586.203918 
	C38.192547,573.498230 43.267216,560.903992 48.251686,548.276245 
	C52.150200,538.399719 55.969635,528.489746 60.042141,518.685181 
	C62.111679,513.702698 64.695099,508.935455 66.987144,504.043274 
	C70.353394,496.858368 73.549797,489.591309 77.041794,482.468719 
	C79.568329,477.315399 82.606903,472.413330 85.139748,467.262817 
	C87.369446,462.728729 88.946930,457.864441 91.298935,453.402374 
	C94.060349,448.163605 97.446831,443.258636 100.385101,438.107849 
	C106.380318,427.598328 112.067375,416.907532 118.286461,406.534241 
	C120.427216,402.963562 122.391594,399.767395 128.734085,400.648621 
	C145.744461,403.011993 162.999695,403.579987 180.139755,405.067535 
	C184.109772,405.412109 188.008286,406.580933 192.916428,407.566589 
	C190.769669,410.100769 189.143936,412.291138 187.246231,414.213013 
	C179.144318,422.418152 170.634491,430.246582 162.892014,438.774048 
	C153.199463,449.449280 144.067032,460.636139 134.778915,471.674622 
	C126.447952,481.575623 118.089043,491.459259 110.013519,501.567108 
	C103.538795,509.671265 97.450226,518.084961 91.228256,526.389771 
	C86.534401,532.654907 81.715263,538.838013 77.293892,545.291931 
	C73.149033,551.342346 69.494843,557.726929 65.544891,563.913513 
	C63.093338,567.753174 60.429230,571.457092 57.976479,575.296021 
	C55.213245,579.620911 52.627548,584.059021 49.873535,588.389954 
	C48.136795,591.121094 46.233067,593.746155 44.702126,596.709351 
	C40.643101,597.000000 36.286201,597.000000 31.464653,597.000000 
z"/>





<path fill="currentColor" opacity="1.000000" stroke="none" 
	d="
M625.464661,597.000000 
	C623.506348,593.695068 622.353210,590.178284 620.454224,587.125488 
	C615.079834,578.485596 609.604614,569.892822 603.785767,561.548950 
	C597.262024,552.194153 590.228943,543.196289 583.584045,533.923828 
	C577.582214,525.548645 572.097656,516.789246 565.852783,508.605377 
	C558.508972,498.981415 550.611877,489.778534 542.916748,480.424347 
	C536.491150,472.613403 530.138245,464.736816 523.508606,457.101624 
	C519.255249,452.203156 514.512512,447.732819 510.071716,442.993164 
	C504.223297,436.751099 498.523743,430.368652 492.631622,424.168762 
	C488.189270,419.494354 483.520020,415.036224 479.019867,410.415466 
	C478.407776,409.786896 478.191986,408.772400 477.364746,407.040771 
	C483.657104,406.315704 489.364288,405.639984 495.075867,405.003723 
	C507.071564,403.667419 519.063721,402.295044 531.069519,401.055267 
	C535.948303,400.551483 540.978882,399.593903 545.703735,400.340637 
	C548.046387,400.710846 550.230286,404.233337 551.821716,406.749817 
	C554.886353,411.595978 557.453125,416.755280 560.271912,421.759064 
	C568.094116,435.644867 576.067932,449.447235 583.721558,463.425079 
	C587.531006,470.382263 590.888794,477.596405 594.239319,484.792816 
	C598.924744,494.856140 603.466370,504.987549 607.969482,515.134216 
	C612.231750,524.738220 616.646973,534.288879 620.481201,544.064514 
	C624.948547,555.454590 628.891724,567.051331 632.995789,578.582153 
	C635.072693,584.417725 637.003113,590.305603 638.999878,596.584900 
	C634.643127,597.000000 630.286194,597.000000 625.464661,597.000000 
z"/>






<path fill="currentColor" opacity="1.000000" stroke="none" 
	d="
M657.463196,597.000000 
	C655.010376,590.778320 653.285156,584.456482 650.974792,578.356323 
	C646.515991,566.583862 641.737915,554.932007 637.070740,543.238770 
	C633.757446,534.937500 630.482300,526.619690 627.057068,518.364502 
	C623.039978,508.683105 619.032532,498.992065 614.719116,489.441467 
	C612.353577,484.203857 609.249756,479.304993 606.685974,474.150330 
	C602.363586,465.459686 598.253540,456.663574 593.956787,447.959900 
	C592.052856,444.103241 589.982422,440.323700 587.863892,436.579132 
	C582.507507,427.111542 577.124634,417.658264 571.653564,408.256805 
	C570.192017,405.745361 568.375000,403.440765 566.247925,400.354523 
	C568.127075,400.186584 569.172791,399.992310 570.213684,400.015289 
	C584.292480,400.326050 598.372009,400.621704 612.446106,401.081909 
	C613.638733,401.120880 615.485352,402.041229 615.859375,403.005432 
	C619.664856,412.816650 623.479736,422.638123 626.798828,432.620728 
	C631.740356,447.483032 636.411194,462.438965 640.960266,477.427002 
	C645.420349,492.121796 649.877014,506.829254 653.796509,521.673340 
	C657.810364,536.874390 661.353455,552.207458 664.750061,567.560791 
	C666.841309,577.013672 668.272461,586.612549 670.000000,596.572937 
	C665.975464,597.000000 661.950928,597.000000 657.463196,597.000000 
z"/>





<path fill="currentColor" opacity="1.000000" stroke="none" 
	d="
M0.999998,583.474121 
	C2.329059,579.878052 4.139353,576.869568 4.906346,573.615173 
	C8.850882,556.878174 12.258014,540.011658 16.375782,523.319336 
	C20.245380,507.633026 24.419031,492.002075 29.106255,476.543030 
	C33.179722,463.108307 38.131294,449.938629 42.745415,436.669434 
	C46.309624,426.419495 49.985435,416.208313 53.522785,405.949249 
	C54.032696,404.470398 54.044239,402.819672 54.380337,400.639191 
	C70.482376,400.639191 86.530487,400.639191 103.296295,400.639191 
	C65.298912,462.248138 36.075008,528.033630 12.688879,596.680115 
	C9.070312,597.000000 5.140625,597.000000 1.000000,597.000000 
	C1.000000,592.650818 1.000000,588.299561 0.999998,583.474121 
z"/>





<path fill="currentColor" opacity="1.000000" stroke="none" 
	d="
M335.057159,314.000122 
	C339.845917,316.706116 344.339050,319.248627 348.582275,322.155945 
	C355.137390,326.647278 361.585541,331.302124 367.960358,336.047089 
	C374.369476,340.817596 380.720917,345.674530 386.941986,350.686737 
	C398.316071,359.850708 409.647705,369.070862 420.841125,378.453522 
	C424.459167,381.486267 427.455597,385.250580 430.982758,388.404724 
	C433.940277,391.049500 437.256348,393.293335 440.719025,395.948883 
	C422.121216,401.032379 404.339722,405.668091 386.701294,410.796082 
	C375.678223,414.000793 364.914307,418.086548 353.950684,421.509735 
	C347.250793,423.601654 340.410400,425.259003 333.588440,426.929077 
	C332.451874,427.207336 331.021820,426.728851 329.836639,426.298859 
	C316.026306,421.287781 302.428894,415.583984 288.389496,411.339020 
	C273.524109,406.844269 258.239685,403.738098 243.146790,399.991333 
	C238.800949,398.912476 234.484360,397.715790 229.746933,396.465607 
	C232.097229,393.918823 234.091339,391.274933 236.550125,389.175171 
	C248.740631,378.764984 260.928436,368.344086 273.369995,358.238190 
	C281.031494,352.014923 289.155579,346.362000 297.055328,340.430817 
	C305.238037,334.287109 313.306641,327.985870 321.611755,322.013000 
	C325.742249,319.042480 330.290375,316.652618 335.057159,314.000122 
z"/>
<path fill="currentColor" opacity="1.000000" stroke="none" 
	d="
M532.000427,376.962769 
	C533.600952,379.165985 535.159302,380.969788 536.717651,382.773621 
	C536.454041,383.296082 536.190430,383.818512 535.926758,384.340973 
	C530.419678,384.560638 524.876892,384.459137 519.412720,385.065308 
	C507.139618,386.426819 494.908112,388.160645 482.654449,389.700958 
	C476.196228,390.512787 469.740479,391.438873 463.254089,391.871674 
	C461.404907,391.995087 459.039703,391.036163 457.618042,389.776001 
	C451.126556,384.022217 445.011414,377.844055 438.523254,372.086334 
	C431.189758,365.578552 423.652130,359.297058 416.112335,353.026550 
	C407.655731,345.993530 399.203430,338.947479 390.544617,332.168457 
	C385.098267,327.904480 379.261230,324.141357 373.626099,320.116272 
	C366.155060,314.779907 358.710052,309.407196 350.471710,303.488129 
	C352.771820,301.966431 355.070526,300.407715 357.406647,298.907227 
	C364.959564,294.055939 372.442169,289.087646 380.112274,284.428528 
	C387.183350,280.133240 394.401306,276.068420 401.669006,272.112244 
	C406.695648,269.376007 411.967804,267.094025 417.035797,264.429474 
	C421.563049,262.049225 425.834839,259.153442 430.455963,256.990784 
	C434.122742,255.274750 437.257111,255.126511 440.402374,259.455872 
	C445.514618,266.492798 451.929474,272.571960 457.645294,279.184387 
	C467.649567,290.757996 477.749908,302.258911 487.411774,314.114807 
	C494.878967,323.277649 501.859955,332.847382 508.821045,342.408081 
	C513.079834,348.257294 516.861389,354.452423 520.916321,360.452271 
	C523.728394,364.613098 526.648621,368.700653 529.504456,372.832123 
	C530.350647,374.056335 531.141846,375.318604 532.000427,376.962769 
z"/>
<path fill="currentColor" opacity="1.000000" stroke="none" 
	d="
M233.474442,256.008301 
	C241.295258,255.542923 246.137970,261.195648 252.187759,263.902588 
	C260.902069,267.801697 269.248596,272.566376 277.577332,277.271027 
	C285.369293,281.672485 292.933075,286.477875 300.598328,291.103668 
	C304.967865,293.740570 309.417114,296.256439 313.671448,299.067474 
	C315.335480,300.166962 316.764465,301.801392 317.812683,303.494202 
	C318.009521,303.812073 316.018341,305.728973 314.824646,306.625305 
	C304.403442,314.450653 293.941742,322.222198 283.475647,329.987518 
	C277.590515,334.354065 271.444733,338.402954 265.822937,343.083344 
	C256.042328,351.226166 246.605743,359.781006 236.968536,368.097748 
	C230.374619,373.788269 223.655304,379.333435 217.061707,385.024261 
	C215.632004,386.258209 214.534866,387.870178 213.224731,389.251251 
	C209.132355,393.565063 204.246170,391.667358 199.490036,391.007263 
	C191.923584,389.957123 184.365234,388.783539 176.766083,388.048767 
	C164.538132,386.866425 152.275986,386.041168 140.037857,384.957062 
	C138.016342,384.777985 136.043594,384.048523 133.340622,383.404968 
	C136.715561,378.389252 139.853683,373.718231 142.999329,369.052277 
	C147.533966,362.326080 151.981796,355.538910 156.638611,348.898285 
	C161.011810,342.662140 165.488861,336.490723 170.133209,330.454712 
	C178.002579,320.227325 185.883301,310.001068 194.053467,300.015106 
	C201.135406,291.359222 208.546097,282.967041 215.960831,274.590485 
	C221.537628,268.290283 227.351013,262.199524 233.474442,256.008301 
z"/>





<path fill="currentColor" opacity="1.000000" stroke="none" 
	d="
M247.923676,240.010101 
	C256.101349,232.244751 263.650543,224.241013 271.760315,216.852585 
	C285.693817,204.158401 299.936340,191.801468 314.132935,179.398865 
	C320.042206,174.236328 326.056763,169.176147 332.289856,164.418518 
	C333.468262,163.519073 336.490967,163.494095 337.661011,164.383423 
	C343.832886,169.074600 349.682373,174.189743 355.646667,179.154236 
	C362.800140,185.108551 370.082977,190.915573 377.070099,197.058960 
	C382.266235,201.627625 387.053864,206.658600 392.073853,211.430618 
	C396.308624,215.456223 400.681641,219.337784 404.874115,223.406113 
	C409.859161,228.243607 414.700165,233.229279 419.643097,238.110718 
	C420.650269,239.105331 421.833038,239.922150 423.787445,241.516373 
	C417.072693,245.135605 410.670898,248.521591 404.330841,252.019547 
	C396.094055,256.563965 387.877075,261.145966 379.706390,265.807892 
	C372.492310,269.924011 365.268677,274.034821 358.205139,278.400146 
	C351.162994,282.752258 344.376343,287.518555 337.320709,291.847351 
	C336.140656,292.571350 333.788361,292.620422 332.610535,291.918884 
	C322.142639,285.684113 311.810394,279.221222 301.452026,272.803131 
	C293.349518,267.782684 285.451569,262.396240 277.121857,257.788635 
	C269.213898,253.414337 260.764648,250.026459 252.772766,245.790939 
	C250.620926,244.650513 249.267410,242.003815 247.923676,240.010101 
z"/>







<path fill="currentColor" opacity="1.000000" stroke="none" 
	d="
M240.685547,224.741669 
	C237.066986,227.953445 233.740829,230.942917 230.789734,233.595306 
	C206.221558,223.212524 181.886597,212.928299 157.062134,202.437210 
	C158.192581,200.249893 159.468506,196.990479 161.400253,194.182205 
	C169.178589,182.874374 176.942398,171.544449 185.129959,160.533783 
	C192.545013,150.561935 200.423431,140.929260 208.247559,131.268539 
	C214.962341,122.977570 221.915314,114.879929 228.707199,106.650780 
	C230.895889,103.998940 233.078751,101.312607 234.952484,98.438751 
	C236.868118,95.500610 238.830948,95.235085 241.676315,97.135155 
	C254.538269,105.724014 267.506439,114.153915 280.359314,122.756180 
	C287.892090,127.797791 295.319763,132.999664 302.719879,138.235275 
	C307.845398,141.861618 312.675415,145.932159 317.960632,149.296509 
	C321.164764,151.336121 320.094696,152.665054 318.109070,154.362366 
	C313.605530,158.211990 309.078369,162.034378 304.533691,165.835449 
	C298.878235,170.565582 293.011566,175.061279 287.567474,180.021912 
	C279.401276,187.462982 271.579956,195.281052 263.505096,202.824402 
	C256.808655,209.080063 249.935165,215.145844 243.201981,221.362778 
	C242.277374,222.216492 241.710480,223.457611 240.685547,224.741669 
z"/>








<path fill="currentColor" opacity="1.000000" stroke="none" 
	d="
M479.183289,216.013855 
	C472.726990,218.940979 466.719360,221.968414 460.593933,224.735077 
	C453.805756,227.801102 446.909912,230.628799 440.382416,233.422684 
	C410.201263,205.961166 379.834259,178.330551 349.389923,150.629562 
	C356.002686,145.755890 363.001556,140.368317 370.243286,135.329758 
	C376.536377,130.951233 383.146393,127.031067 389.534424,122.785095 
	C393.300873,120.281647 396.830353,117.421112 400.601807,114.925873 
	C410.088440,108.649368 419.565094,102.347282 429.262939,96.410233 
	C431.050659,95.315788 433.769775,94.995987 435.174347,98.567078 
	C436.318024,101.474930 438.855652,103.870071 440.919739,106.373375 
	C446.044037,112.588081 451.314667,118.682632 456.410431,124.920288 
	C464.905518,135.319016 473.675690,145.521484 481.649353,156.309662 
	C489.594299,167.059006 496.665955,178.451706 504.199890,189.508224 
	C506.296448,192.585052 508.737946,195.425003 510.895569,198.462845 
	C511.888550,199.860916 512.578674,201.474075 513.338501,202.865738 
	C501.775757,207.364105 490.677887,211.681625 479.183289,216.013855 
z"/>













<path fill="currentColor" opacity="1.000000" stroke="none" 
	d="
M573.316772,305.786896 
	C576.452820,312.269653 579.395874,318.439148 582.167480,324.684723 
	C586.514526,334.480682 590.708679,344.344452 595.039307,354.147827 
	C597.857605,360.527649 600.868652,366.822632 603.664062,373.212189 
	C605.060303,376.403656 606.166687,379.722015 607.794189,384.011078 
	C604.162964,383.607544 601.431458,383.063446 598.695740,383.041504 
	C586.698120,382.945190 574.667969,382.486877 562.714294,383.217896 
	C556.792969,383.579956 553.997742,380.627289 551.318420,376.700439 
	C544.537354,366.762146 538.071655,356.605865 531.177734,346.748047 
	C523.298889,335.481903 515.255249,324.322296 506.981293,313.343872 
	C499.830017,303.855011 492.363098,294.597015 484.835052,285.401245 
	C478.767395,277.989380 472.447296,270.781647 466.146759,263.564026 
	C462.762634,259.687225 459.150726,256.010132 455.708923,252.182404 
	C454.312439,250.629395 453.095123,248.915298 451.600891,247.027664 
	C456.578491,244.585953 461.169800,242.179779 465.887817,240.054962 
	C473.230164,236.748230 480.600525,233.488342 488.069061,230.481995 
	C493.967621,228.107651 500.033600,226.149689 506.021759,223.997314 
	C510.961151,222.221939 515.835266,220.220367 520.872070,218.789963 
	C522.233521,218.403336 524.865356,219.227600 525.580017,220.347458 
	C530.865723,228.629791 535.989319,237.028366 540.824768,245.582077 
	C547.044922,256.585297 552.991089,267.744507 558.975586,278.879364 
	C563.728210,287.722076 568.360901,296.629211 573.316772,305.786896 
z"/>






<path fill="currentColor" opacity="1.000000" stroke="none" 
	d="
M127.324265,250.174194 
	C132.998047,240.850372 138.381683,231.777008 143.792953,222.720184 
	C144.748672,221.120605 145.841202,218.261185 146.833511,218.277222 
	C149.782700,218.324844 152.808365,219.260757 155.633179,220.309830 
	C163.392700,223.191574 171.124237,226.167267 178.753998,229.374268 
	C185.597092,232.250565 192.264145,235.542740 199.057968,238.540131 
	C204.148834,240.786194 209.270508,242.979828 214.471039,244.952789 
	C217.216080,245.994202 217.967316,247.198273 215.927032,249.561996 
	C209.700043,256.776154 203.377319,263.911621 197.299713,271.249908 
	C188.654388,281.688568 180.216324,292.298645 171.647079,302.800720 
	C165.202698,310.698639 158.483734,318.382660 152.281982,326.464996 
	C148.083206,331.936981 144.687851,338.017670 140.718674,343.675659 
	C136.125702,350.222809 131.191544,356.530914 126.611198,363.086487 
	C123.873116,367.005341 121.405479,371.129303 119.041275,375.288940 
	C116.408859,379.920502 113.854218,384.413147 107.304405,383.018127 
	C106.666962,382.882355 105.975548,383.000000 105.309189,383.000000 
	C91.419174,383.000000 77.529160,383.000000 63.021671,383.000000 
	C63.652973,380.562744 64.081429,377.274261 65.340660,374.342682 
	C69.745605,364.087524 74.450035,353.961273 79.016167,343.775055 
	C83.107796,334.647400 87.032471,325.441925 91.289230,316.392334 
	C93.998093,310.633514 97.239410,305.127502 100.133331,299.452759 
	C104.518539,290.853760 108.576897,282.079407 113.207825,273.616913 
	C117.525375,265.726959 122.409042,258.146820 127.324265,250.174194 
z"/>



</svg>