<svg xmlns="http://www.w3.org/2000/svg" class="icon-bott-logo-graphic" width="74" height="74" viewBox="0 0 244.8 244.8" style="enable-background:new 0 0 244.8 244.8;">
<style>.blue-section{fill:#387ca0}.prefix__st1{fill:none}.white-section{fill:#fff}</style><title>bottco_logo_graphic</title><path class="white-section" d="M244.2,176.5c1.9,5.9-1.4,12.4-7.4,14.2L68.3,244.2c-5.9,1.9-12.4-1.4-14.2-7.4L0.5,68.3 C-1.4,62.3,2,55.9,7.9,54L176.5,0.5c5.9-1.9,12.4,1.4,14.2,7.4L244.2,176.5z"></path><path class="blue-section" d="M39.2,44.1L7.9,54C2,55.9-1.4,62.3,0.5,68.3l38.7,121.9V44.1z"></path><path class="blue-section" d="M244.2,176.5L190.7,7.9c-1.9-5.9-8.3-9.3-14.2-7.4L63.6,36.4h54.9c37.9,0,61.5,16.5,61.5,43.1 c0,18.5-11.3,33-29.8,37.9c22.4,4.2,35.9,20.9,35.9,43.5c0,29.5-25.1,47.7-64.9,47.7H45.1l9,28.3c1.9,5.9,8.3,9.3,14.2,7.4 l168.6-53.5C242.8,188.8,246.1,182.4,244.2,176.5z"></path><path class="blue-section" d="M140.1,86.6c0-11.8-8.9-18.7-23.6-18.5H78.1v37.6h38.4C131.2,105.8,140.1,98.6,140.1,86.6z"></path><path class="blue-section" d="M78.1,176.9h38.4c18.2,0,29.5-7.6,29.5-20.9c0-12.5-11.3-20.2-29.5-19.9H78.1V176.9z"></path></svg>