<?xml version="1.0" encoding="UTF-8"?>
<svg width="91px" height="91px" viewBox="0 0 91 91" version="1.1" xmlns="http://www.w3.org/2000/svg" xmlns:xlink="http://www.w3.org/1999/xlink">
    <title>musicMagpie</title>
    <defs>
        <polygon id="path-1" points="0 0 44.2861 0 44.2861 80.9694 0 80.9694"></polygon>
        <polygon id="path-3" points="0 91 698.746 91 698.746 0 0 0"></polygon>
    </defs>
    <g id="Page-1" stroke="none" stroke-width="1" fill="none" fill-rule="evenodd">
        <g id="Artboard" >
            <g id="musicMagpie">
                <g id="Group-3">
                    <mask id="mask-2" fill="white">
                        <use xlink:href="#path-1"></use>
                    </mask>
                    <g id="Clip-2"></g>
                    <path d="M35.2971,52.0674 L36.4051,49.3374 C36.6001,48.8524 36.3641,48.3014 35.8791,48.1074 L31.3981,46.3134 C30.7781,46.0654 30.6041,45.2714 31.0621,44.7854 L44.2861,30.2924 C43.9991,19.1494 34.6401,15.1794 34.6401,15.1794 C21.0341,23.9944 15.2551,57.5364 15.2551,57.5364 C13.1971,30.1324 33.1741,10.4974 33.1741,10.4974 L33.1051,10.4994 C35.1201,8.3844 37.5481,6.0284 39.4251,4.1664 C40.3801,3.2194 40.3871,1.6804 39.4421,0.7244 C38.4931,-0.2336 36.9501,-0.2436 35.9941,0.7074 C34.3161,2.3784 31.7121,5.0044 29.5171,7.3714 C29.5171,7.3714 26.3331,10.4424 23.1231,11.0654 L23.1251,11.0704 C5.2991,13.7164 2.4281,26.9044 2.4281,26.9044 C-7.7789,55.0104 17.4921,80.9694 17.4921,80.9694 C20.9851,66.5524 31.2001,56.3614 31.2001,56.3614 C32.7301,54.9564 34.1081,53.4714 35.2971,52.0674" id="Fill-1" fill="#fff"></path>
                </g>
                <path d="M62.6814,10.0308 C59.1894,24.4478 48.9734,34.6378 48.9734,34.6378 C46.5044,36.9078 44.4314,39.3798 42.9104,41.3918 L42.6894,41.9108 C42.4954,42.3968 42.7314,42.9468 43.2164,43.1408 L47.6974,44.9348 C48.3164,45.1828 48.4914,45.9778 48.0334,46.4628 L35.8894,59.6618 C35.5944,71.6028 45.5344,75.8208 45.5344,75.8208 C59.1394,67.0058 64.9184,33.4638 64.9184,33.4638 C66.9774,60.8678 46.9994,80.5028 46.9994,80.5028 L47.0694,80.5008 C45.0544,82.6158 42.6254,84.9718 40.7484,86.8338 C39.7934,87.7808 39.7864,89.3198 40.7324,90.2758 C41.6804,91.2338 43.2234,91.2428 44.1794,90.2928 C45.8584,88.6218 48.4624,85.9958 50.6564,83.6288 C50.6564,83.6288 53.8414,80.5578 57.0514,79.9348 L57.0484,79.9288 C74.8744,77.2838 77.7454,64.0948 77.7454,64.0948 C87.9524,35.9888 62.6814,10.0308 62.6814,10.0308" id="Fill-4" fill="#fff"></path>
                
                
            </g>
        </g>
    </g>
</svg>