<svg xmlns="http://www.w3.org/2000/svg" viewBox="0 0 145 145">
<g transform="translate(24.5 0)">
  <defs>
    <path id="uol-element" d="M19 39.6c-14-7.1 6.5-21.5-6-19.4-.1-.4.2-1.8-.6-1.5.5 1 0 2.7-.4 3.8 1.2.6.1 2-.2 2.8 0 0-.3-.6-.5-.6-.5 1-1.2.6-2 1 .1-.6-.6-1 .1-2-.4 0-.7-.3-.8-.4 1.3-1.1.8-2 2.8-1.1l.5-2.2c-.4-.1-.6-.4-.7-1 0 0-2.6-.7-3.5.8 0 0-2.3-3.8 6.6-3 2.2-2.1 9.1.7 10.3-1.8 0 0-2 3.7-3.7 5-1.7 1.3-5.6 7.9-.9 8.4-3.4-8.3 4.2 3.8 7.5-5.3-.6-3.3 12.4-.8 17.5-5.4 0 0-.5 3.3-2 7.1l-3.4-.5 3.1 1.4a23 23 0 0 1-2.8 5l-3-1.6 2.3 2.3c-1.4 1.7-3.2 3-5.5 3.7l-2.2-4.2 1.1 4.4a11 11 0 0 1-3.5 0c2.4 2.7 4.5 5.9 4.7 9 0 0-1.6-3.7-4.8-4.2l.6 1.8s-3.2-1.8-4.9-1.3c-1.4 3-.4 6.8-.4 6.8 2.3.5 4.4 1.7 4.4 1.7-4.5-.4-8.3-1.1-11.2 1 .2-2.4 5.4-3.5 5.4-3.5.4-3.4-2.5-6-3.9-7Z" />
  </defs>

  <!-- Liver birds, then book, text -->
  <mask id="details-mask" maskUnits="userSpaceOnUse" maskContentUnits="userSpaceOnUse" x="0" y="0" width="145" height="145">

      <path d="M94.4 2.9S76.6 0 48.2 0 1.9 2.9 1.9 2.9c-4.1 18-6.3 111 46.3 141.8C101 113.7 98.4 20 94.4 3Z" fill="white"/>
      <use href="#uol-element" fill="black" />
      <use href="#uol-element" transform="translate(45 0)" fill="black" />
      <use href="#uol-element" transform="translate(17 67.5) scale(1.2575)" fill="black" />

      <path d="m73.8 76.4-1.5-.8.6 1.6-1.2-.7.3.8c-1.9 1.9-10.5-9.5-23.6 2.7-1.3 1.2-1.4 1.6-3 0-10.5-10.7-22.7-2-22.7-2l-.7-.5.4-1-1 .7.7-1.9-1.7.9.6-1.4-1 .4 7-17.4c9.5-8.4 20.5-.4 20.5-.4s11.8-8.4 20 .3l6.7 17.5-1-.4.7 1.6Z" fill="black"></path>
      <path d="M66.8 41.1c.4.5 1 1.1 1 1.7v-1.7l-1.5-.4.5.4ZM29.7 62.6h.4c.3 0 .6-.4.8-1h.3l-.3 1-.1 1.2h-.3c0-.5 0-.9-.5-.8h-.3l-.5 1.6c-.2.6 0 .6.7.5v.3l-1.7.3-1.7.4.2-.3c.8-.2.9-.5 1.1-1.1l.9-2.7c.2-.8.2-1.1-.5-1l.1-.3a16 16 0 0 0 4.4-1l-.1 1.5h-.4c0-.9-.3-.7-1.3-.5-.6.1-.7.1-.9.8l-.3 1.2Zm4.3-1.5c.1-.7.2-1-.5-.9l.1-.3 1.2-.1 1.3-.2v.3c-.7.1-.9.4-1 1l-.6 2.7c-.2.9-.2 1.1.5 1.1v.3h-1.4l-1.5.2.1-.4c.7 0 .9-.3 1-1.1L34 61Zm3.2 2.6-.3.6c-.2.5.3.5.5.6v.3h-1l-.7-.1v-.4c.6 0 1-.7 1.2-1.3a578 578 0 0 0 1.8-3.9l.6.1.8 4.4.2 1c0 .3.4.5.5.6v.3a14.1 14.1 0 0 0-2.4-.5V65c.3 0 .7 0 .7-.3v-.8l-.1-.3-.9-.1-.7-.1-.2.3Zm1-.7h.7l-.4-2-1 2h.6Zm6.6.4-.3-.1c0-.8 0-1.5-.4-1.7-.5-.2-.6 0-.6.7l-.3 3c-.1.8 0 1.1.5 1.5v.3l-1.2-.6-1.3-.4v-.4c.8.2.8 0 .9-.8l.3-3c.1-.6.2-.9-.3-1-.6-.3-.6.3-.8 1H41l.2-1.8s1.1.2 2 .6c1 .4 1.7 1 1.7 1l-.1 1.7Zm6.9 3.7c.6-.4.6-.7.6-1.4l-.2-3c0-.8 0-1.2-.7-1v-.3a9.8 9.8 0 0 1 2.5-1v.4c-.7.2-.6.6-.6 1.4l.2 2.4c0 1 .1 1.5 1 1.2 1-.3 1.4-.8 1.5-1.9h.3v1.8c-1.4.3-2.9 1-3.3 1l-1.3.7v-.3Zm4.1-6.8h2.8v.2c-.6 0-.6.5-.6 1.3l.2 1.4c.1 1.2.5 1.8 1.5 1.8 1.2 0 1.1-.6 1-1.7l-.2-1.3c0-.3 0-.7-.2-1a.7.7 0 0 0-.6-.4v-.3h.9l.8.2v.3c-.2 0-.4.1-.5.4v1l.1.9c.2 1.6.4 2.4-1.5 2.5-1.3 0-2.5-.4-2.7-2.3l-.1-1.5c-.1-.8-.1-1.2-.8-1.2v-.3Zm10.7 5.4c.3.4.5.7.9.7v.3l-1.3-.2c-.3 0-.8 0-1.2-.2V66h.4v-.2L65 65l-.7-1.1-.4.6c-.1.2-.4.5-.3.8 0 .3.3.4.5.5v.3l-1-.2-.8-.1v-.4c.4 0 .7-.3.9-.6l.8-1.3-1-1.5c0-.3-.2-.4-.4-.6-.1-.3-.3-.3-.5-.4v-.3l1.2.2 1 .2.1.4c-.2 0-.5-.1-.4.2l.2.4.4.7.3-.4.3-.5c.2-.2-.2-.4-.5-.4v-.4l.8.1h.7v.4c-.3 0-.5.2-.7.6l-.7 1 1.7 2.4Z" fill="white"/>

  </mask>

  <!-- Shield -->

    <path mask="url(#details-mask)" d="M94.4 2.9S76.6 0 48.2 0 1.9 2.9 1.9 2.9c-4.1 18-6.3 111 46.3 141.8C101 113.7 98.4 20 94.4 3Z" fill="#100F0F"/>
  </g>

  

</svg>
