<svg xmlns="http://www.w3.org/2000/svg" viewBox="0 0 100 144.7"><style>.prefix__st0{fill:#1f2b7d}.prefix__st1{fill:none}.prefix__st2{fill:#fff}.prefix__st7{fill:#a17205}</style><g id="prefix__Layer_1"><path class="prefix__st0" d="M94.1 2.9S76.3 0 47.8 0C19.4 0 1.6 2.9 1.6 2.9S-8 73.7 19.9 116.1c9.5 14.4 27.9 28.5 27.9 28.6.1 0 18.5-14.2 27.9-28.6C103.8 73.7 94.1 2.9 94.1 2.9z"/><path d="M7.8 19.3c.1.4.2.6.2.6.6-.9 1.8-1 2.6-.9-.6-.2-1.9-.3-2.8.3z"/><path class="prefix__st1" d="M10.7 24.4c.1.1.2.2.3.2-.1 0-.2-.1-.3-.2z"/><path d="M10.8 22.1c.1 0 .1 0 .2.1h.1v-.1c-.4-.1-.9-.3-1-.3h-.2l.9.3zm-1.1 3.4s-.1 0 0 0h-.1v.1c.1-.1.3-.1.4-.2-.2.1-.3.1-.3.1zm11.6 15.2c.2.2.4.3.5.4l.1.1c.1.1.2.2.2.3l.2.2.1.1c.3.3.5.7.5 1.1v-1.2l-.7-.7-.9-.3zm10-9.8l1.1 4.4h-2.5c.2 0 .4 0 .6.1.9.1 1.7 0 2.5-.1l-.6-2.2-1.1-2.2zM17.9 17.5c-.1 0-.7-.2-1-.2-.3-.1-.7-.3-1.2-.3-.4 0-2.2.9-2.2.9.1 0 1.2-.4 1.5-.4h.4c0 .2.2.3.5.3s.5-.2.6-.3c.4.1.9.1 1.2.1.1 0 .2-.1.2-.1zm2.1 7.9s.1 0 .1.1h.1s.1 0 .1.1c.1 0 .1.1.2.1h.1l.1.1h.1c.1 0 .2.1.2.1h.1c.3.2 1.1.6 2.1.6-.9-.2-1.6-.6-1.6-.6-1-.6-1.6-.8-1.9-.7.2.2.2.2.3.2zm-8.8-.6l-.2-.2c-.2.4-.4.6-.6.7H10c.2 0 .5 0 .8-.1.1.1.3-.1.4-.4 0 .1 0 0 0 0zm1-2.3c.3-.6.5-1.3.5-2.3V19s-.2-.5-.6-.3c0 0 .2.1.2.5v1c-.1.8-.3 1.6-.5 2.3l.4.4c.1.1.3.4.2.8-.2.4-.4 1-.6 1.1 0 0-.1.1-.1.2l.2.4c.1 0 .1-.4.3-.6.1-.2.4-.7.6-1.1.1-.4-.1-.7-.2-.8l-.4-.4zM36.6 29l2.4 2.4-.3.3-.1.1-.2.2-.1.1-.2.2-.1.1-.2.2-.1.1c-.1 0-.1.1-.2.1s-.1.1-.2.1l-.1.1c-.1 0-.1.1-.2.1l-.1.1c-.1 0-.1.1-.2.1l-.1.1c-.1 0-.1.1-.2.1 0 0-.1 0-.1.1-.1.1-.2.1-.2.2-.6.4-1.3.7-2 1l.1.2c2.2-.6 4-2 5.5-3.7L38 29.6l-1.4-.6zm8.1-10.8c-.1.4-.2.9-.3 1.6v.1c0 .1 0 .2-.1.3v.4c0 .1 0 .2-.1.2v.1c0 .1-.1.2-.1.4v.1c0 .1-.1.2-.1.4 0 .1-.1.3-.1.4v.1l-.3.9-.6 1.5.6.1c1.5-3.8 2-7.1 2-7.1-.4.2-.7.4-.9.5zm-5.3 6.1l3.1 1.4-.3.6c-.6 1.4-1.4 2.9-2.4 4.2l.5.3c1.2-1.5 2.1-3.3 2.9-5l-3-1.3-.8-.2zM25.2 40.5h-.7c-1.4 3-.4 6.8-.4 6.8h.2c2 .5 3.8 1.4 4.1 1.6h.6s-2-1.2-4.3-1.6c0 .2-1.1-3.8.5-6.8zm-4.8 8.3h-.3c-.1 0-.2 0-.3.1-.1 0-.2.1-.3.1-.1 0-.2.1-.3.1-.1 0-.2.1-.3.1-.1 0-.2.1-.3.1-.2.1-.4.2-.5.3-.1.2-.1.3-.1.5 0 0 1.7-1.2 3.2-1.3 2.4-.2 3.8 0 6.7.2-3.5-.3-5-.5-7.5-.2z"/><path class="prefix__st2" d="M16.4 17.5c-.1.1-.3.3-.6.3s-.5-.1-.5-.3h-.4c-.2 0-1.4.4-1.5.4 0 0 1.8-.9 2.2-.9.5 0 .9.2 1.2.3.3.1 1 .2 1 .2.1 0-.1.1-.3.1-.2.1-.7.1-1.1-.1zm6.4 25.3c0-.3-.2-.7-.5-1.1l-.1-.1c-.1-.1-.1-.2-.2-.2-.1-.1-.2-.2-.2-.3l-.1-.1c-.1-.1-.3-.3-.5-.4l1.5.4v1.8zm22-25.1c-4.9 3.6-14.9 3.5-16.5 3.9-1.6.4-1.1 1.5-1.1 1.5-2.2 5.7-6.1 2.9-6.1 2.9-3-1.9-2.5.1-1.3 2.4-4.7-.6-.8-7.1.8-8.4 1.8-1.3 3.7-5.1 3.7-5.1-.6.6-2.3 1.8-6.9.9-2-.4-3.5.9-3.5.9-8.9-.8-6.6 3.1-6.6 3.1 1-1.5 3.7-.8 3.7-.8 0 .5.3.8.6 1-.1.6-.2 1.4-.5 2.2-.3-.1-1.1-.4-1.4-.4-.7.1-.6 1.1-1.4 1.4.1.2.4.4.8.5-.3.4-.3 1-.3 1.1 0 .3.2.4.2.5v.4c.2-.1.4-.2.6-.2.1 0 .6 0 .8-.1.2-.1.4-.3.6-.7.1 0 .1.1.1.1.1.1.3.5.3.6.1 0 .1-.4.3-.6.1-.2.4-.7.6-1.1.1-.4-.1-.7-.2-.8l-.4-.4c.2-.7.4-1.4.5-2.3v-1c0-.4-.2-.5-.2-.5.3-.3.6.3.6.3v1.2c.5 0 .8-.2.8-.2s2.9-.3 3.3.4c.4.7.3 2.6-2.3 7.2-2.8 5 .2 9.9 4.3 12 1.4 1 4.3 3.6 3.9 7 0 0-5.3 1.1-5.5 3.4 0 0 1.7-1.2 3.2-1.3 2.7-.2 4.2-.1 8.1.3 0 0-2.1-1.2-4.4-1.7 0 0-1-3.8.4-6.8h.2c1.7-.4 4.8 1.3 4.8 1.3l-.7-1.8c3.2.5 4.8 4.3 4.8 4.3-.1-3.2-2.2-6.4-4.7-9.1.4.1.7.1 1 .1.9.1 1.7 0 2.5-.1l-1.1-4.4 2.2 4.1c2.2-.6 4-2 5.5-3.7L36.6 29l3 1.6c1.2-1.5 2.1-3.3 2.9-5l-3.1-1.4 3.4.5c1.5-3.7 2-7 2-7z"/><path d="M20.6 20c-1.7 1.3-5.6 7.8-.8 8.4-3.7-1.2-.1-7.1 1.5-8.3C23.1 18.8 25 15 25 15c-.2.2-.6.4-1 .6-.7 1.2-2.1 3.5-3.4 4.4zm8.8 15.4c-.2 0-.4 0-.6-.1.1.1.2.3.4.4l.1.1c.1.1.2.3.3.4l.1.1c.1.1.2.3.3.4.1.1.2.3.3.4.1.1.2.3.3.4v.1c.1.1.2.3.3.4v.1c.1.1.2.3.3.4.1.1.2.3.3.4.1.1.2.3.3.4v.1c.1.1.2.3.2.4v.1c.1.1.1.3.2.4v.1c.1.1.1.3.2.4v.1c.1.1.1.3.2.4 0 0 0 .1.1.1 0 .1.1.3.1.4v.2c0 .1.1.2.1.3 0 .1 0 .1.1.2 0 .1 0 .2.1.3v.1c.5.8.8 1.4.8 1.4.2-2.9-2.1-6.3-4.5-8.9zm-.7 4.7l.6 1.6c.4.2.7.4.7.4l-.7-1.8c-.1-.1-.4-.2-.6-.2z"/><path class="prefix__st1" d="M22.1 40.9l.7.7v-.5l-.7-.2z"/><path d="M52.5 19.3l.2.6c.6-.9 1.8-1 2.6-.9-.6-.2-1.9-.3-2.8.3z"/><path class="prefix__st1" d="M55.4 24.4c.1.1.2.2.3.2-.1 0-.2-.1-.3-.2z"/><path d="M55.5 22.1c.1 0 .1 0 .2.1h.1v-.1c-.4-.1-.9-.3-1-.3h-.2l.9.3zm-1.1 3.4s-.1 0 0 0h-.1v.1c.1-.1.3-.1.4-.2-.2.1-.3.1-.3.1zM66 40.7c.2.2.4.3.5.4l.1.1c.1.1.2.2.2.3l.2.2.1.1c.3.3.5.7.5 1.1v-1.2l-.7-.7-.9-.3zm10-9.8l1.1 4.4h-2.5c.2 0 .4 0 .6.1.9.1 1.7 0 2.5-.1l-.6-2.2-1.1-2.2zM62.6 17.5c-.1 0-.7-.2-1-.2-.3-.1-.7-.3-1.2-.3-.4 0-2.2.9-2.2.9.1 0 1.2-.4 1.5-.4h.4c0 .2.2.3.5.3s.5-.2.6-.3c.4.1.9.1 1.2.1.1 0 .2-.1.2-.1zm2.1 7.9s.1 0 .1.1h.1s.1 0 .1.1c.1 0 .1.1.2.1h.1l.1.1h.1c.1 0 .2.1.2.1h.1c.3.2 1.1.6 2.1.6-.9-.2-1.6-.6-1.6-.6-1-.6-1.6-.8-1.9-.7.2.2.2.2.3.2zm-8.8-.6l-.2-.2c-.2.4-.4.6-.6.7h-.4c.2 0 .5 0 .8-.1.1.1.3-.1.4-.4 0 .1 0 0 0 0zm1-2.3c.3-.6.5-1.3.5-2.3V19s-.2-.5-.6-.3c0 0 .2.1.2.5v1c-.1.8-.3 1.6-.5 2.3l.4.4c.1.1.3.4.2.8-.2.4-.4 1-.6 1.1 0 0-.1.1-.1.2l.2.4c.1 0 .1-.4.3-.6.1-.2.4-.7.6-1.1.1-.4-.1-.7-.2-.8l-.4-.4zM81.3 29l2.4 2.4-.3.3-.1.1-.2.2-.1.1-.2.2-.1.1-.2.2-.1.1c-.1 0-.1.1-.2.1s-.1.1-.2.1l-.1.1c-.1 0-.1.1-.2.1l-.1.1c-.1 0-.1.1-.2.1l-.1.1c-.1 0-.1.1-.2.1 0 0-.1 0-.1.1-.1.1-.2.1-.2.2-.6.4-1.3.7-2 1l.1.2c2.2-.6 4-2 5.5-3.7l-1.7-1.7-1.4-.6zm8.1-10.8c-.1.4-.2.9-.3 1.6v.1c0 .1 0 .2-.1.3v.4c0 .1 0 .2-.1.2v.1c0 .1-.1.2-.1.4v.1c0 .1-.1.2-.1.4 0 .1-.1.3-.1.4v.1l-.3.9-.6 1.5.6.1c1.5-3.8 2-7.1 2-7.1-.4.2-.7.4-.9.5zm-5.3 6.1l3.1 1.4-.3.6c-.6 1.4-1.4 2.9-2.4 4.2l.5.3c1.2-1.5 2.1-3.3 2.9-5l-3-1.3-.8-.2zM69.9 40.5h-.7c-1.4 3-.4 6.8-.4 6.8h.2c2 .5 3.8 1.4 4.1 1.6h.6s-2-1.2-4.3-1.6c0 .2-1.1-3.8.5-6.8zm-4.8 8.3h-.3c-.1 0-.2 0-.3.1-.1 0-.2.1-.3.1-.1 0-.2.1-.3.1-.1 0-.2.1-.3.1-.1 0-.2.1-.3.1-.2.1-.4.2-.5.3-.1.2-.1.3-.1.5 0 0 1.7-1.2 3.2-1.3 2.4-.2 3.8 0 6.7.2-3.5-.3-5-.5-7.5-.2z"/><path class="prefix__st2" d="M61.1 17.5c-.1.1-.3.3-.6.3s-.5-.1-.5-.3h-.4c-.2 0-1.4.4-1.5.4 0 0 1.8-.9 2.2-.9.5 0 .9.2 1.2.3.3.1 1 .2 1 .2.1 0-.1.1-.3.1-.2.1-.7.1-1.1-.1zm6.4 25.3c0-.3-.2-.7-.5-1.1l-.1-.1c-.1-.1-.1-.2-.2-.2-.1-.1-.2-.2-.2-.3l-.1-.1c-.1-.1-.3-.3-.5-.4l1.5.4v1.8zm22-25.1c-4.9 3.6-14.9 3.5-16.5 3.9-1.6.4-1.1 1.5-1.1 1.5-2.2 5.8-6.2 2.9-6.2 2.9-3-1.9-2.5.1-1.3 2.4-4.7-.6-.8-7.1.8-8.4 1.9-1.3 3.8-5 3.8-5-.6.6-2.3 1.8-6.9.9-2-.4-3.5.9-3.5.9-8.9-.8-6.6 3.1-6.6 3.1.9-1.5 3.6-.8 3.6-.8 0 .5.3.8.6 1-.1.6-.2 1.4-.5 2.2-.3-.1-1.1-.4-1.4-.4-.7.1-.6 1.1-1.4 1.4.1.2.4.4.8.5-.3.4-.3 1-.3 1.1 0 .3.2.4.2.5v.4c.2-.1.4-.2.6-.2.1 0 .6 0 .8-.1.2-.1.4-.3.6-.7.1 0 .1.1.1.1.1.1.3.5.3.6.1 0 .1-.4.3-.6.1-.2.4-.7.6-1.1.1-.4-.1-.7-.2-.8l-.4-.4c.2-.7.4-1.4.5-2.3v-1c0-.4-.2-.5-.2-.5.3-.3.6.3.6.3v1.2c.5 0 .8-.2.8-.2s2.9-.3 3.3.4c.4.7.3 2.6-2.3 7.2-2.8 5 .2 9.9 4.3 12 1.4 1 4.3 3.6 3.9 7 0 0-5.3 1.1-5.5 3.4 0 0 1.7-1.2 3.2-1.3 2.7-.2 4.2-.1 8.1.3 0 0-2.1-1.2-4.4-1.7 0 0-1-3.8.4-6.8h.2c1.7-.4 4.8 1.3 4.8 1.3l-.7-1.8c3.2.5 4.8 4.3 4.8 4.3-.1-3.2-2.2-6.4-4.7-9.1.4.1.7.1 1 .1.9.1 1.7 0 2.5-.1l-.9-4.4 2.2 4.1c2.2-.6 4-2 5.5-3.7L81.3 29l3 1.6c1.2-1.5 2.1-3.3 2.9-5l-3.1-1.4 3.4.5c1.5-3.7 2-7 2-7z"/><path d="M65.3 20c-1.7 1.3-5.6 7.8-.8 8.4-3.7-1.2-.1-7.1 1.5-8.3 1.8-1.3 3.7-5.1 3.7-5.1-.2.2-.6.4-1 .6-.7 1.2-2.1 3.5-3.4 4.4zm8.8 15.4c-.2 0-.4 0-.6-.1.1.1.2.3.4.4l.1.1c.1.1.2.3.3.4l.1.1c.1.1.2.3.3.4.1.1.2.3.3.4.1.1.2.3.3.4v.1c.1.1.2.3.3.4v.1c.1.1.2.3.3.4.1.1.2.3.3.4.1.1.2.3.3.4v.1c.1.1.2.3.2.4v.1c.1.1.1.3.2.4v.1c.1.1.1.3.2.4v.1c.1.1.1.3.2.4 0 0 0 .1.1.1 0 .1.1.3.1.4v.2c0 .1.1.2.1.3 0 .1 0 .1.1.2 0 .1 0 .2.1.3v.1c.5.8.8 1.4.8 1.4.2-2.9-2.1-6.3-4.5-8.9zm-.7 4.7l.6 1.6c.4.2.7.4.7.4l-.7-1.8c-.1-.1-.4-.2-.6-.2z"/><path class="prefix__st1" d="M66.8 40.9l.7.7v-.5l-.7-.2z"/><path d="M26.6 92c.1.4.3.7.3.7.7-1.1 2.2-1.3 3.3-1.2-.8-.1-2.5-.3-3.6.5z"/><path class="prefix__st1" d="M30.2 98.5c.1.1.2.2.4.2-.1 0-.3-.1-.4-.2z"/><path d="M30.3 95.5c.1 0 .1 0 0 0 .1 0 .2.1.2.1h.1v-.1c-.5-.1-1.1-.4-1.3-.3-.1 0-.1 0-.2.1.4 0 .9.1 1.2.2zM29 99.8c-.1 0-.1 0 0 0h-.3v.2c.2-.1.3-.2.5-.2H29zm14.5 19.1l.6.6.1.1.3.3c.1.1.2.2.2.3 0 0 0 .1.1.1.3.4.6.9.6 1.3V120c-.3-.4-.7-.7-.9-.9l-1-.2zM56 106.6l1.4 5.5c-.1 0-.2 0-.4.1h-2.7c.2 0 .5.1.7.1 1.1.1 2.2 0 3.2-.1l-.7-2.7-1.5-2.9zM39.2 89.8c-.1 0-.9-.2-1.3-.3-.4-.1-.9-.3-1.5-.3-.5 0-2.7 1.2-2.7 1.2.1 0 1.5-.5 1.8-.5h.4c0 .3.3.4.7.4.4 0 .7-.3.7-.4.5.2 1.2.2 1.5.1.3-.1.5-.2.4-.2zm2.7 9.9c.1 0 .1 0 .2.1h.1s.1 0 .1.1c.1 0 .1.1.2.1 0 0 .1 0 .1.1.1 0 .1.1.2.1 0 0 .1 0 .1.1.1.1.2.1.3.2h.2c.3.2 1.4.8 2.7.8a5 5 0 01-2-.8c-1.3-.8-2-1-2.4-.9 0 0 .1.1.2.1zm-11.1-.8l-.2-.2c-.2.5-.5.8-.7.9 0 0-.1 0-.1.1h-.3c.2 0 .7 0 1-.2 0 0 .2-.2.3-.6.1.1.1.1 0 0 .1.1 0 0 0 0zm1.3-2.9c.3-.7.6-1.7.6-2.9v-1.4s-.3-.7-.7-.3c0 0 .2.1.3.6v1.3c-.1 1-.3 2-.6 2.8.1.2.4.4.5.5.1.1.4.5.2 1s-.5 1.2-.7 1.4c0 .1-.1.1-.1.2.1.2.2.4.3.5.1 0 .1-.5.3-.7.2-.2.5-.9.7-1.4.2-.5-.1-.9-.2-1-.3-.3-.5-.4-.6-.6zm30.7 8.3l3 3c-.1.1-.2.3-.3.4l-.1.1-.3.3-.1.1-.2.2c-.1 0-.1.1-.2.1l-.2.2-.2.2-.2.2-.2.2c-.1.1-.1.1-.2.1l-.2.2c-.1 0-.1.1-.2.1-.1.1-.2.1-.2.2l-.1.1c-.1.1-.2.1-.3.2 0 0-.1 0-.1.1-.1.1-.2.1-.3.2h-.1c-.8.5-1.7.9-2.6 1.2l.2.3c2.8-.8 5.1-2.5 6.9-4.6l-2.2-2.2-1.6-.9zm10.1-13.6c-.1.5-.2 1.1-.4 2v.1c0 .1-.1.3-.1.4 0 .1 0 .2-.1.2v.2c0 .1-.1.2-.1.3v.1c0 .1-.1.3-.1.5v.1c0 .2-.1.3-.1.5v.1c-.1.2-.1.4-.2.5v.1c-.1.4-.2.8-.4 1.2-.2.6-.4 1.3-.7 1.9l.8.1c1.9-4.7 2.5-8.9 2.5-8.9-.5.2-.8.4-1.1.6zm-6.7 7.6l3.9 1.7c-.1.3-.2.5-.3.8-.8 1.8-1.8 3.6-3 5.2l.6.3c1.5-1.9 2.7-4.1 3.6-6.3l-3.7-1.7h-1.1zm-17.8 20.4h-.9c-1.8 3.7-.5 8.5-.5 8.5.1 0 .2 0 .3.1 2.5.6 4.8 1.8 5.2 2h.7s-2.5-1.5-5.4-2.1c0 .2-1.4-4.8.6-8.5zm-6 10.3c-.1 0-.3 0-.4.1-.1 0-.2 0-.4.1-.1 0-.2.1-.4.1-.1 0-.2.1-.4.1-.1 0-.2.1-.3.1-.1 0-.2.1-.3.2-.2.1-.5.2-.7.3-.1.2-.1.4-.2.7 0 0 2.2-1.5 4-1.6 3-.3 4.8 0 8.4.2-4.3-.4-6.1-.6-9.3-.3z"/><path class="prefix__st2" d="M37.4 89.8c-.1.1-.3.4-.7.4-.4 0-.7-.1-.7-.4h-.4c-.3.1-1.7.6-1.8.5 0 0 2.2-1.2 2.7-1.2.6 0 1.1.2 1.5.3.4.1 1.2.3 1.3.3.1 0-.1.1-.3.2-.5.1-1.2.1-1.6-.1zm8 31.8c0-.4-.3-.9-.6-1.3 0 0 0-.1-.1-.1-.1-.1-.2-.2-.2-.3l-.3-.3s0-.1-.1-.1l-.6-.6 1.9.5v2.2zM73 90c-6.1 4.6-18.7 4.3-20.7 4.9-2 .5-1.4 1.9-1.4 1.9-2.8 7.2-7.7 3.7-7.7 3.7-3.8-2.3-3.1.1-1.6 3.1-5.9-.7-1-8.9 1.1-10.5 2.2-1.7 4.7-6.4 4.7-6.4-.7.8-2.8 2.3-8.6 1.1-2.6-.5-4.4 1.1-4.4 1.1-11.2-1-8.3 3.9-8.3 3.9 1.2-1.9 4.5-1 4.5-1 0 .7.4 1 .8 1.2-.1.8-.3 1.8-.6 2.7-.4-.1-1.4-.5-1.7-.4-.9.1-.8 1.4-1.7 1.8.1.2.5.5 1 .6-.4.5-.4 1.3-.4 1.4 0 .4.3.5.3.6v.5c.3-.1.5-.3.7-.3.2 0 .7 0 1-.2.2-.1.5-.4.7-.9.1 0 .1.1.2.1.2.2.4.7.4.7.1 0 .1-.5.3-.7.2-.2.5-.9.7-1.4.2-.5-.1-.9-.2-1-.1-.1-.4-.3-.5-.5.3-.8.5-1.8.6-2.8 0 0 .1-.8 0-1.3 0-.5-.3-.6-.3-.6.4-.3.7.3.7.3v1.5c.6-.1 1-.2 1-.2s3.6-.4 4.1.5c.6.9.3 3.2-2.9 9-3.5 6.3.2 12.4 5.4 15.1 1.7 1.3 5.3 4.5 4.9 8.8 0 0-6.6 1.3-6.9 4.3 0 0 2.2-1.5 4-1.6 3.4-.3 5.2-.1 10.1.4 0 0-2.7-1.5-5.5-2.1 0 0-1.3-4.8.5-8.5h.2c2.2-.5 6 1.7 6 1.7l-.9-2.3c4 .6 6 5.4 6 5.4-.1-4-2.8-8-5.9-11.4.4.1.9.1 1.3.2 1.1.1 2.2 0 3.2-.1l-1.4-5.5 2.8 5.2c2.8-.8 5.1-2.5 6.9-4.6l-3-3 3.7 2c1.5-1.9 2.7-4.1 3.6-6.3l-3.9-1.7 4.3.7C72.4 94.2 73 90 73 90z"/><path d="M42.7 92.9c-2.1 1.6-7 9.8-1.1 10.5-4.7-1.5-.1-8.9 1.9-10.4 2.2-1.7 4.7-6.4 4.7-6.4-.2.2-.8.5-1.3.8-.9 1.5-2.6 4.3-4.2 5.5zm11 19.3c-.2 0-.5-.1-.7-.1l.5.5s0 .1.1.1c.1.2.3.3.4.5 0 0 0 .1.1.1.1.2.3.3.4.5v.1c.1.2.3.4.4.5.1.2.3.4.4.6l.1.1c.1.2.3.4.4.5 0 0 0 .1.1.1.1.2.3.4.4.6.1.2.2.4.4.6l.3.6s0 .1.1.1c.1.2.2.4.3.5 0 0 0 .1.1.1.1.2.2.4.3.5v.1c.1.2.1.3.2.5 0 0 0 .1.1.1.1.2.1.3.2.5 0 .1 0 .1.1.2.1.2.1.3.2.5 0 .1 0 .1.1.2 0 .1.1.3.1.4 0 .1 0 .2.1.3 0 .1.1.2.1.4v.2c.7 1 1 1.8 1 1.8-.5-4.1-3.3-8.4-6.3-11.7zm-.9 6l.8 2c.6.3.9.5.9.5l-.8-2.3c-.3-.1-.6-.2-.9-.2z"/><path class="prefix__st1" d="M44.6 119.2l.8.8v-.6l-.8-.2z"/><linearGradient id="prefix__SVGID_1_" gradientUnits="userSpaceOnUse" x1="21.003" y1="76.418" x2="46.515" y2="76.418"><stop offset="0" stop-color="#fff"/><stop offset=".134" stop-color="#e7e7f1"/><stop offset=".389" stop-color="#bcbbd8"/><stop offset=".737" stop-color="#8484b5"/><stop offset=".938" stop-color="#6768a3"/></linearGradient><path d="M34.8 73.2c-.1 0-.2 0-.4-.1-.2 0-.4 0-.5-.1-5.1-.5-9.7 1.2-12.1 2.3l-.8 1.9s14.5-9.5 25.5 2.7c0 0-4-5.5-11.7-6.7z" fill="url(#prefix__SVGID_1_)"/><linearGradient id="prefix__SVGID_2_" gradientUnits="userSpaceOnUse" x1="58.898" y1="75.232" x2="72.583" y2="75.232"><stop offset=".096" stop-color="#6768a3"/><stop offset=".318" stop-color="#8080b3"/><stop offset=".807" stop-color="#cfcee3"/><stop offset="1" stop-color="#fff"/></linearGradient><path d="M72 75.6c-2.5-1.1-7.5-2.9-13.1-2.1 7.5-.4 13.7 3.7 13.7 3.7l-.6-1.6z" fill="url(#prefix__SVGID_2_)"/><linearGradient id="prefix__SVGID_3_" gradientUnits="userSpaceOnUse" x1="20.053" y1="74.408" x2="37.551" y2="74.408"><stop offset="0" stop-color="#fff"/><stop offset=".155" stop-color="#e7e7f1"/><stop offset=".452" stop-color="#bcbcd8"/><stop offset=".857" stop-color="#8484b5"/><stop offset=".938" stop-color="#7a7aaf"/></linearGradient><path d="M20.8 74.4l-.8 1.8s8.6-5 17.5-2.5c-7-2.3-14-.3-16.7.7z" fill="url(#prefix__SVGID_3_)"/><linearGradient id="prefix__SVGID_4_" gradientUnits="userSpaceOnUse" x1="53.709" y1="74.609" x2="73.564" y2="74.609"><stop offset=".096" stop-color="#7a7aaf"/><stop offset=".359" stop-color="#9594c0"/><stop offset=".937" stop-color="#eeeef5"/><stop offset="1" stop-color="#fff"/></linearGradient><path d="M53.7 74.8c9.9-4.1 19.9 1.6 19.9 1.6l-.7-1.6c-2.7-1.1-10.9-3.8-19.2 0z" fill="url(#prefix__SVGID_4_)"/><path class="prefix__st7" d="M46.5 79.8c-9.2-10.1-20.8-5.2-24.4-3.2l-.4.9.7.4s12.2-8.7 22.7 2.1c1.6 1.6 1.8 1.2 3 0 11.9-11.3 22.3-2.2 22.6-2.3.4-.1 1-.4 1-.4l-.3-.8c-3.6-2-15.2-7.1-24.6 2.9l-.3.4zm.3-.4"/><linearGradient id="prefix__SVGID_5_" gradientUnits="userSpaceOnUse" x1="19.647" y1="66.972" x2="47.167" y2="66.972"><stop offset=".732" stop-color="#fff"/><stop offset="1" stop-color="#8e8ebc"/></linearGradient><path d="M19.6 75.2S35 67.5 46.5 80l.6-22.6s-10.9-8-20.5.4l-7 17.4z" fill="url(#prefix__SVGID_5_)"/><linearGradient id="prefix__SVGID_6_" gradientUnits="userSpaceOnUse" x1="42.95" y1="66.876" x2="55.097" y2="66.876"><stop offset=".096" stop-color="#7a7aaf"/><stop offset=".359" stop-color="#9594c0"/><stop offset=".937" stop-color="#eeeef5"/><stop offset="1" stop-color="#fff"/></linearGradient><path d="M73.9 75.2S58.4 67.4 46.6 80l.6-22.6s11.8-8.4 20.1.4l6.6 17.4z" fill="url(#prefix__SVGID_6_)"/><path d="M29.4 62.6l.3-.1c.4-.1.6-.3.8-1h.3c-.1.4-.2.8-.2 1.2-.1.4-.1.7-.2 1.1h-.3c0-.5 0-.9-.5-.8h-.3l-.5 1.5c-.2.6 0 .6.8.5l-.1.3c-.5.1-1.1.2-1.7.3-.5.1-.8.2-1.6.3l.1-.3c.8-.2.9-.4 1.1-1.1l.9-2.7c.2-.8.2-1.1-.5-1l.1-.3c.5 0 1.3-.1 2-.3.8-.2 1.6-.4 2.5-.6l-.1 1.4-.4.1c0-1-.3-.8-1.3-.6-.6.1-.7.2-.9.8l-.3 1.3zm4.3-1.5c.1-.7.2-.9-.5-.9l.1-.4c.4-.1.7-.1 1.2-.1.5-.1.8-.1 1.3-.2v.4c-.7.1-.8.3-.9 1l-.7 2.7c-.2.9-.2 1.1.5 1.1l-.1.3h-1.4c-.4 0-1 .1-1.5.1l.1-.3c.7-.1.9-.4 1.1-1.2l.8-2.5zm3.2 2.6c-.1.2-.2.3-.3.7-.2.4.3.5.5.6l-.1.3c-.3 0-.6-.1-.9-.1h-.8l.1-.3c.6 0 .9-.7 1.2-1.3.8-1.7 1.8-3.9 1.8-3.9l.6.1s.7 3.6.8 4.4c.1.7.1.8.2 1.1 0 .2.3.4.5.5l-.1.3c-.4-.1-.7-.2-1.2-.3-.4-.1-.8-.2-1.3-.2l.1-.4c.3 0 .7 0 .7-.4 0-.1-.1-.6-.1-.7l-.1-.4s-.4-.1-.8-.1c-.4-.1-.8-.1-.8-.1v.2zm1-.7c.4 0 .7.1.7.1l-.4-2.1-.9 1.9s.2 0 .6.1zm6.6.4l-.3-.1c0-.8 0-1.5-.4-1.7-.4-.2-.5 0-.6.7l-.3 3c-.1.8 0 1.1.6 1.5v.4c-.5-.2-.9-.4-1.2-.6-.4-.2-.8-.3-1.3-.5l.1-.3c.7.2.7 0 .8-.8l.3-3c.1-.6.2-1-.3-1.1-.6-.2-.6.4-.8 1.1l-.3-.1.2-1.7s1.1.2 2 .6c1 .4 1.7.9 1.7.9l-.2 1.7zm6.9 3.7c.6-.4.6-.7.6-1.4l-.2-3c0-.8 0-1.2-.7-.9v-.4c.5-.2.7-.3 1.1-.5.5-.2.9-.3 1.4-.4v.4c-.7.2-.6.6-.6 1.4l.1 2.5c0 .9.1 1.4 1 1.2 1.1-.3 1.5-.8 1.6-1.9h.3V66c-1.4.3-3 .9-3.4 1-.4.2-.9.4-1.3.6l.1-.5zm4.2-6.8c.6-.1 1-.1 1.4-.1h1.4v.3c-.7 0-.7.5-.6 1.2l.2 1.4c.1 1.2.5 1.9 1.6 1.8 1.1 0 1.1-.6 1-1.7l-.3-1.2c0-.3-.1-.7-.3-1-.1-.3-.3-.4-.6-.4v-.3c.3 0 .6.1.9.1.3 0 .4 0 .8.1v.3c-.2 0-.4.1-.5.4-.1.3 0 .7 0 1l.1.8c.2 1.7.4 2.5-1.6 2.6-1.2.1-2.5-.4-2.7-2.3l-.2-1.5c-.1-.8-.1-1.1-.8-1.1l.2-.4zm10.6 5.4c.3.4.5.7.9.7l.1.3c-.5-.1-.8-.1-1.3-.2-.4-.1-.8-.1-1.3-.2V66h.4c.1 0 .1-.1.1-.2 0-.2-.3-.6-.4-.7L64 64l-.4.6c-.1.2-.3.6-.3.8 0 .3.3.4.5.5v.3c-.4-.1-.6-.1-1-.2-.3 0-.6-.1-.8-.1v-.3c.4.1.6-.3.8-.6l.9-1.3-1-1.5c-.1-.2-.2-.4-.4-.6-.2-.3-.3-.3-.5-.4v-.3c.3.1.7.2 1.1.3.4.1.8.1 1.1.2v.4c-.2 0-.5-.1-.4.2 0 .2.1.3.2.5l.5.7.3-.5c.1-.2.2-.3.3-.4.1-.2-.2-.4-.5-.4v-.3c.3 0 .5.1.8.1h.7l.1.3c-.4 0-.5.2-.8.6l-.7 1 1.7 2.1z"/></g></svg>