<?xml version="1.0" encoding="UTF-8"?><svg xmlns="http://www.w3.org/2000/svg" viewBox="0 0 100 144.73"><defs><style>.d{fill:#fff;}</style></defs><g id="a"/><g id="b"><g id="c"><g><path class="d" d="M39.22,89.77c-.08-.01-.91-.21-1.31-.3-.41-.09-.9-.34-1.5-.34-.5,0-2.72,1.16-2.72,1.16,.1,.04,1.53-.46,1.82-.52,.3-.04,.28-.01,.44,0,.02,.31,.28,.39,.67,.4,.4,0,.67-.25,.74-.35,.47,.15,1.17,.16,1.51,.11,.26-.04,.42-.11,.34-.16Z"/><path class="d" d="M22.8,41.08l-1.5-.38c.19,.16,.36,.3,.5,.44,.02,.02,.04,.04,.06,.06,.09,.09,.17,.18,.24,.26,.07,.07,.13,.15,.19,.23,.02,.02,.04,.05,.05,.07,.25,.34,.46,.71,.46,1.06v-1.75Z"/><path class="d" d="M17.87,17.51c-.06,0-.72-.16-1.04-.24-.33-.07-.72-.27-1.19-.27-.4,0-2.17,.92-2.17,.92,.08,.03,1.22-.37,1.45-.41,.24-.04,.22,0,.35,0,.02,.25,.22,.31,.54,.32,.32,0,.53-.2,.59-.28,.37,.12,.93,.13,1.2,.09,.21-.03,.33-.09,.27-.13Z"/><path class="d" d="M44.15,119.46s.05,.05,.07,.07c.12,.11,.21,.22,.31,.33,.08,.09,.17,.19,.24,.29,.02,.03,.04,.06,.06,.08,.32,.42,.57,.9,.57,1.34v-2.19l-1.89-.48c.24,.2,.45,.38,.63,.56Z"/><path class="d" d="M62.57,17.51c-.06,0-.72-.16-1.04-.24-.33-.07-.72-.27-1.19-.27-.4,0-2.17,.92-2.17,.92,.08,.03,1.22-.37,1.45-.41,.24-.04,.22,0,.35,0,.02,.25,.22,.31,.54,.32,.32,0,.53-.2,.59-.28,.37,.12,.93,.13,1.2,.09,.21-.03,.33-.09,.27-.13Z"/><path class="d" d="M94.14,2.88S76.35,0,47.87,0,1.61,2.88,1.61,2.88c0,0-9.64,70.79,18.32,113.26,9.48,14.4,27.89,28.53,27.95,28.58h0c.06-.04,18.47-14.18,27.95-28.58C103.78,73.67,94.14,2.88,94.14,2.88ZM18.79,39.63c-4.1-2.12-7.04-6.98-4.28-12.03,2.53-4.61,2.71-6.47,2.27-7.18-.44-.71-3.29-.42-3.29-.42,0,0-.36,.12-.81,.16v-1.22s-.26-.53-.59-.26c0,0,.2,.12,.21,.48,.02,.36-.03,1.04-.03,1.04-.07,.82-.25,1.59-.5,2.26,.1,.13,.29,.28,.39,.4,.06,.06,.29,.36,.16,.77-.16,.39-.42,.97-.56,1.12-.16,.19-.18,.56-.26,.56,0-.03-.2-.41-.34-.55-.02-.03-.07-.06-.14-.1-.18,.4-.43,.64-.59,.73-.23,.12-.66,.16-.8,.14-.15-.02-.37,.13-.59,.21-.01-.07,.03-.25,.01-.44,0-.13-.2-.21-.22-.5,0-.08-.03-.71,.3-1.08-.37-.07-.71-.3-.79-.48,.76-.29,.68-1.31,1.38-1.41,.25-.04,1.04,.29,1.37,.36,.28-.77,.42-1.54,.49-2.17-.33-.16-.59-.44-.61-.99,0,0-2.64-.71-3.59,.79,0,0-2.27-3.87,6.62-3.08,0,0,1.43-1.27,3.47-.86,4.61,.95,6.31-.24,6.88-.88,0,0-1.96,3.71-3.73,5.06-1.66,1.26-5.57,7.8-.85,8.38-1.19-2.31-1.73-4.3,1.29-2.43,0,0,3.95,2.85,6.16-2.92,0,0-.5-1.11,1.09-1.53,1.59-.42,11.59-.25,16.45-3.87,0,0-.49,3.34-1.97,7.11l-3.44-.52,3.09,1.39c-.73,1.71-1.66,3.46-2.85,5l-2.97-1.61,2.36,2.35c-1.47,1.69-3.28,3.04-5.51,3.66l-2.21-4.15,1.12,4.38c-.8,.13-1.63,.18-2.53,.11-.34-.02-.69-.07-1.04-.13,2.47,2.7,4.57,5.91,4.68,9.1,0,0-1.58-3.79-4.8-4.26l.69,1.81s-3.05-1.7-4.79-1.34c-.05,.01-.1,.02-.16,.03-1.44,2.97-.41,6.79-.41,6.79,2.27,.47,4.4,1.69,4.4,1.69-3.89-.41-5.35-.58-8.06-.33-1.42,.12-3.15,1.3-3.15,1.3,.19-2.37,5.45-3.44,5.45-3.44,.37-3.42-2.51-5.97-3.89-6.98Zm51.74,59.29l-4.32-.66,3.88,1.75c-.92,2.14-2.09,4.34-3.58,6.28l-3.73-2.03,2.97,2.96c-1.84,2.12-4.12,3.82-6.92,4.6l-2.78-5.21,1.41,5.51c-1,.16-2.05,.22-3.17,.13-.42-.03-.86-.09-1.3-.16,3.1,3.39,5.75,7.42,5.87,11.43,0,0-1.98-4.76-6.02-5.35l.87,2.28s-3.82-2.13-6.01-1.68c-.07,.01-.13,.02-.2,.03-1.8,3.73-.52,8.52-.52,8.52,2.85,.59,5.53,2.12,5.53,2.12-4.89-.52-6.72-.72-10.13-.42-1.79,.16-3.96,1.63-3.96,1.63,.24-2.98,6.85-4.32,6.85-4.32,.46-4.3-3.15-7.5-4.88-8.77-5.15-2.66-8.85-8.77-5.38-15.11,3.18-5.79,3.41-8.13,2.85-9.02-.55-.88-4.13-.53-4.13-.53,0,0-.46,.15-1.02,.2l-.02-1.53s-.31-.66-.73-.33c0,0,.25,.15,.27,.6,.02,.46-.04,1.3-.04,1.3-.09,1.03-.32,2-.63,2.84,.13,.17,.36,.35,.49,.5,.07,.08,.37,.45,.2,.96-.2,.49-.52,1.21-.71,1.41-.2,.24-.23,.7-.33,.7-.01-.04-.25-.52-.42-.7-.03-.04-.09-.08-.17-.12-.23,.5-.54,.8-.74,.92-.29,.15-.83,.21-1,.17-.2-.03-.47,.16-.74,.26-.01-.09,.04-.32,.02-.55,0-.16-.25-.26-.27-.62,0-.1-.03-.89,.38-1.36-.46-.09-.89-.38-.98-.6,.95-.37,.85-1.64,1.73-1.78,.31-.05,1.31,.36,1.72,.45,.35-.97,.53-1.94,.62-2.73-.42-.2-.74-.56-.77-1.24,0,0-3.32-.89-4.51,.99,0,0-2.85-4.86,8.32-3.87,0,0,1.79-1.6,4.36-1.08,5.79,1.2,7.92-.31,8.64-1.11,0,0-2.46,4.67-4.68,6.36-2.08,1.59-6.99,9.79-1.06,10.53-1.5-2.9-2.17-5.39,1.62-3.05,0,0,4.96,3.58,7.74-3.67,0,0-.62-1.4,1.37-1.92,2-.53,14.56-.31,20.67-4.86,0,0-.62,4.19-2.48,8.93Zm3.03-22.55l-1.58-.76,.6,1.57s-.41-.27-1.14-.67l.3,.82s-.58,.34-.98,.43c-.39,.09-10.76-9.09-22.65,2.25-1.27,1.21-1.44,1.63-3.02,0-10.46-10.73-22.69-2.06-22.69-2.06l-.65-.43,.37-.93c-.71,.38-1.11,.64-1.11,.64l.77-1.89c-1.08,.48-1.72,.85-1.72,.85l.64-1.43c-.67,.27-1.05,.46-1.05,.46l7-17.38c9.58-8.47,20.52-.45,20.52-.45,0,0,11.79-8.4,20.08,.35l6.64,17.5-.97-.43,.65,1.56Zm13.93-51.57l-3.44-.52,3.09,1.39c-.73,1.71-1.66,3.46-2.85,5l-2.97-1.61,2.36,2.35c-1.47,1.69-3.28,3.04-5.51,3.66l-2.21-4.15,1.12,4.38c-.79,.13-1.63,.18-2.53,.11-.34-.02-.69-.07-1.04-.13,2.47,2.7,4.58,5.91,4.68,9.1,0,0-1.57-3.79-4.8-4.26l.69,1.81s-3.05-1.7-4.79-1.34c-.05,.01-.11,.02-.16,.03-1.44,2.97-.41,6.79-.41,6.79,2.27,.47,4.4,1.69,4.4,1.69-3.89-.41-5.35-.58-8.06-.33-1.42,.12-3.15,1.3-3.15,1.3,.19-2.37,5.45-3.44,5.45-3.44,.37-3.42-2.51-5.97-3.89-6.98-4.1-2.12-7.04-6.98-4.28-12.03,2.53-4.61,2.71-6.47,2.27-7.18-.44-.71-3.29-.42-3.29-.42,0,0-.36,.12-.81,.16v-1.22s-.26-.53-.59-.26c0,0,.2,.12,.21,.48,.02,.36-.03,1.04-.03,1.04-.07,.82-.25,1.59-.5,2.26,.1,.13,.29,.28,.39,.4,.06,.06,.29,.36,.16,.77-.16,.39-.42,.97-.56,1.12-.16,.19-.18,.56-.26,.56,0-.03-.2-.41-.34-.55-.02-.03-.07-.06-.14-.1-.18,.4-.43,.64-.59,.73-.23,.12-.66,.16-.8,.14-.16-.02-.38,.13-.59,.21-.01-.07,.03-.25,.01-.44,0-.13-.2-.21-.22-.5,0-.08-.03-.71,.3-1.08-.36-.07-.71-.3-.78-.48,.76-.29,.68-1.31,1.38-1.41,.24-.04,1.04,.29,1.37,.36,.28-.77,.42-1.54,.49-2.17-.33-.16-.59-.44-.61-.99,0,0-2.64-.71-3.59,.79,0,0-2.27-3.87,6.62-3.08,0,0,1.43-1.27,3.47-.86,4.61,.95,6.31-.24,6.88-.88,0,0-1.96,3.71-3.73,5.06-1.66,1.26-5.57,7.8-.85,8.38-1.19-2.31-1.73-4.3,1.29-2.43,0,0,3.95,2.85,6.16-2.92,0,0-.49-1.11,1.09-1.53,1.59-.42,11.59-.25,16.45-3.87,0,0-.49,3.34-1.97,7.11Z"/><path class="d" d="M66.49,41.15s.04,.04,.06,.06c.09,.09,.17,.18,.25,.26,.07,.07,.13,.15,.19,.23,.02,.02,.04,.05,.05,.07,.25,.34,.46,.71,.46,1.06v-1.75l-1.5-.38c.19,.16,.36,.3,.5,.44Z"/></g><g><path class="d" d="M29.44,62.65l.34-.06c.38-.08,.59-.34,.81-1.04l.28-.04c-.08,.39-.15,.77-.22,1.16-.06,.38-.11,.74-.17,1.12l-.28,.04c.05-.54-.04-.93-.53-.84l-.3,.05-.5,1.54c-.17,.63,.02,.65,.79,.49l-.07,.33c-.5,.11-1.08,.23-1.68,.35-.52,.1-.82,.18-1.65,.31l.13-.29c.84-.17,.91-.45,1.12-1.09l.89-2.72c.24-.77,.2-1.07-.46-1.03l.08-.27c.53-.03,1.27-.12,1.95-.25,.85-.16,1.64-.38,2.47-.63l-.13,1.43-.39,.08c0-.99-.33-.82-1.28-.62-.62,.13-.74,.16-.9,.84l-.31,1.16Z"/><path class="d" d="M33.72,61.11c.14-.68,.22-.95-.46-.87l.08-.35c.39-.07,.71-.08,1.19-.14,.49-.07,.81-.13,1.3-.17l-.04,.35c-.67,.08-.84,.33-.94,.97l-.68,2.71c-.15,.88-.2,1.09,.51,1.09l-.05,.35c-.43,0-.87,0-1.36,0-.41,0-1.04,.08-1.46,.12l.11-.34c.74-.08,.86-.37,1.05-1.17l.76-2.56Z"/><path class="d" d="M36.94,63.67c-.1,.22-.17,.33-.31,.66-.2,.44,.27,.5,.54,.55l-.05,.34c-.3-.03-.61-.08-.91-.1-.28-.02-.56-.02-.84-.03l.05-.35c.63,0,.95-.75,1.21-1.32,.77-1.66,1.78-3.89,1.78-3.89l.6,.07s.73,3.58,.84,4.36c.1,.68,.14,.8,.21,1.12,.05,.21,.33,.44,.5,.51l-.05,.35c-.44-.14-.7-.22-1.16-.33-.36-.08-.79-.16-1.25-.22l.06-.35c.27,.04,.7,.02,.68-.39,0-.15-.06-.57-.08-.71l-.08-.35s-.41-.09-.84-.14c-.42-.05-.75-.06-.75-.06l-.13,.28Zm.92-.7c.39,.04,.73,.1,.73,.1l-.41-2.06-.93,1.93s.28,.01,.6,.04Z"/><path class="d" d="M44.49,63.41l-.3-.12c.02-.78,.03-1.47-.42-1.7-.43-.21-.52,.02-.58,.73l-.31,2.96c-.09,.81-.01,1.14,.57,1.48l-.04,.35c-.46-.24-.86-.43-1.22-.58-.39-.16-.81-.29-1.27-.45l.07-.33c.71,.19,.74-.04,.83-.84l.34-2.95c.07-.65,.16-.96-.32-1.13-.58-.21-.65,.38-.83,1.12l-.31-.1,.22-1.74s1.12,.24,2.04,.64c.96,.4,1.7,.94,1.7,.94l-.14,1.72Z"/><path class="d" d="M51.38,67.08c.64-.38,.63-.68,.59-1.43l-.17-3.02c-.04-.75,.02-1.15-.71-.88l-.02-.36c.45-.23,.72-.35,1.06-.48,.45-.17,.93-.32,1.43-.45l.02,.38c-.67,.21-.61,.6-.57,1.35l.15,2.46c.04,.92,.15,1.43,.98,1.15,1.05-.34,1.46-.77,1.6-1.88l.3-.04,.04,1.86c-1.43,.31-2.96,.88-3.39,1.04-.39,.18-.88,.4-1.29,.63l-.02-.34Z"/><path class="d" d="M55.56,60.3c.6-.05,1.01-.05,1.38-.06,.43-.03,.83-.02,1.38-.02l.03,.33c-.67,.01-.66,.46-.59,1.21l.15,1.44c.11,1.16,.51,1.85,1.55,1.8,1.12-.04,1.09-.63,.97-1.74l-.16-1.24c-.04-.33-.1-.75-.26-1.02-.14-.25-.34-.37-.59-.4l-.04-.32c.32,.02,.59,.07,.89,.11,.28,.04,.45,.03,.8,.07l.03,.33c-.22,0-.41,.13-.48,.41-.1,.33,0,.68,.03,1.04l.11,.82c.19,1.65,.36,2.49-1.56,2.56-1.24,.05-2.49-.44-2.67-2.34l-.16-1.51c-.08-.76-.08-1.14-.78-1.14l-.02-.33Z"/><path class="d" d="M66.2,65.71c.28,.37,.51,.66,.87,.72l.05,.32c-.53-.08-.78-.15-1.27-.22-.38-.07-.84-.11-1.26-.19l-.04-.32c.06,0,.36,.02,.43-.02,.07-.03,.11-.1,.11-.21,0-.17-.29-.56-.39-.71l-.72-1.1-.38,.59c-.13,.19-.34,.55-.32,.81,.03,.34,.29,.41,.54,.47l.03,.33c-.39-.07-.64-.13-.96-.2-.29-.04-.56-.09-.84-.13l-.02-.34c.39,.05,.64-.28,.85-.61l.87-1.32-1.01-1.53c-.1-.22-.25-.4-.38-.58-.18-.25-.32-.27-.5-.39v-.33c.33,.1,.72,.2,1.12,.28,.39,.07,.77,.11,1.11,.16l.03,.36c-.19-.01-.46-.07-.44,.21,.02,.19,.05,.26,.19,.47l.46,.69,.33-.46c.12-.16,.19-.26,.29-.43,.14-.22-.2-.4-.51-.44l-.03-.35c.29,.05,.52,.07,.78,.09,.27,.01,.43,0,.68,0l.11,.34c-.38,0-.53,.25-.77,.62l-.66,.98,1.66,2.44Z"/></g><g></g></g></g></svg>