<svg
  xmlns="http://www.w3.org/2000/svg"
  xmlns:xlink="http://www.w3.org/1999/xlink"
>
  <defs>
    <symbol
      id="resend"
      width="70"
      height="17"
      viewBox="0 0 77 19"
      fill="none"
      xmlns="http://www.w3.org/2000/svg"
      class="text-neutral-900 dark:text-neutral-100"
    >
      <g clip-path="url(#clip0_52_626)">
        <path
          d="M0.97168 17.8125V1.1875H8.3163C9.34297 1.1875 10.2749 1.425 11.112 1.9C11.9491 2.35917 12.6046 2.98458 13.0785 3.77625C13.5681 4.56792 13.8129 5.47042 13.8129 6.48375C13.8129 7.48125 13.5681 8.39167 13.0785 9.215C12.6046 10.0225 11.9491 10.6637 11.112 11.1387C10.2749 11.6137 9.34297 11.8512 8.3163 11.8512H4.40707V17.8125H0.97168ZM10.3775 17.8125L6.1603 10.3075L9.80891 9.71375L14.5 17.8362L10.3775 17.8125ZM4.40707 8.95375H8.15045C8.57691 8.95375 8.94809 8.85875 9.26399 8.66875C9.59568 8.46292 9.8484 8.18583 10.0221 7.8375C10.1959 7.47334 10.2828 7.06959 10.2828 6.62625C10.2828 6.15125 10.1801 5.73959 9.97476 5.39125C9.76943 5.04292 9.46932 4.77375 9.07445 4.58375C8.67958 4.37792 8.22153 4.275 7.7003 4.275H4.40707V8.95375Z"
          fill="currentcolor"
        />
        <path
          d="M21.3865 18.05C20.0281 18.05 18.8355 17.7729 17.8088 17.2187C16.798 16.6645 16.0083 15.9045 15.4396 14.9387C14.8868 13.9729 14.6104 12.8645 14.6104 11.6137C14.6104 10.6321 14.7684 9.7375 15.0842 8.93C15.4001 8.1225 15.8424 7.42584 16.411 6.84C16.9796 6.23834 17.6509 5.77917 18.4249 5.4625C19.2146 5.13 20.0675 4.96375 20.9837 4.96375C21.8366 4.96375 22.6263 5.12209 23.3529 5.43875C24.0795 5.75542 24.7034 6.19875 25.2246 6.76875C25.7616 7.32292 26.1723 7.98792 26.4566 8.76375C26.7409 9.52375 26.8672 10.3471 26.8357 11.2337L26.812 12.2787H16.7428L16.1977 10.2125H24.04L23.6609 10.64V10.1175C23.6293 9.69 23.4871 9.31 23.2344 8.9775C22.9975 8.62917 22.6895 8.36 22.3105 8.17C21.9314 7.96417 21.5048 7.86125 21.031 7.86125C20.3361 7.86125 19.7438 7.99584 19.254 8.265C18.7802 8.53417 18.417 8.93 18.1642 9.4525C17.9115 9.975 17.7851 10.6083 17.7851 11.3525C17.7851 12.1125 17.9431 12.7695 18.2591 13.3237C18.5908 13.8779 19.0488 14.3133 19.6332 14.63C20.2334 14.9308 20.9362 15.0812 21.7417 15.0812C22.2946 15.0812 22.8001 14.9942 23.2582 14.82C23.7161 14.6458 24.2057 14.345 24.7271 13.9175L26.3382 16.1737C25.8801 16.5854 25.3746 16.9337 24.8219 17.2187C24.269 17.4879 23.7004 17.6937 23.1159 17.8362C22.5315 17.9787 21.9551 18.05 21.3865 18.05Z"
          fill="currentcolor"
        />
        <path
          d="M32.354 18.05C31.1851 18.05 30.1426 17.86 29.2266 17.48C28.3263 17.0842 27.5997 16.5458 27.0469 15.865L29.1555 14.06C29.6293 14.5825 30.1663 14.9625 30.7666 15.2C31.3668 15.4217 31.9669 15.5325 32.5672 15.5325C32.8041 15.5325 33.0173 15.5088 33.2069 15.4613C33.4122 15.398 33.586 15.3188 33.7281 15.2238C33.8703 15.113 33.973 14.9863 34.0361 14.8438C34.1151 14.6855 34.1546 14.5192 34.1546 14.345C34.1546 13.9967 34.0124 13.7275 33.7281 13.5375C33.5702 13.4425 33.3253 13.3396 32.9936 13.2288C32.662 13.1021 32.2355 12.9675 31.7143 12.825C30.9087 12.6192 30.2216 12.3817 29.653 12.1125C29.1002 11.8275 28.658 11.5109 28.3263 11.1625C28.042 10.83 27.8208 10.4738 27.6629 10.0938C27.5207 9.69797 27.4496 9.26255 27.4496 8.78755C27.4496 8.21755 27.576 7.70297 27.8287 7.2438C28.0814 6.7688 28.429 6.36505 28.8712 6.03255C29.3293 5.70005 29.8505 5.44672 30.4349 5.27255C31.0192 5.08255 31.6352 4.98755 32.2829 4.98755C32.9305 4.98755 33.5623 5.06672 34.1783 5.22505C34.7943 5.38339 35.3629 5.61297 35.8841 5.9138C36.4211 6.1988 36.8871 6.53922 37.282 6.93505L35.4813 8.93005C35.197 8.66088 34.8733 8.41547 34.51 8.1938C34.1625 7.97214 33.7992 7.79797 33.4201 7.6713C33.041 7.54464 32.7014 7.4813 32.4013 7.4813C32.1328 7.4813 31.888 7.50505 31.6669 7.55255C31.4616 7.60005 31.2878 7.67922 31.1456 7.79005C31.0035 7.88505 30.893 8.0038 30.814 8.1463C30.7508 8.2888 30.7192 8.44713 30.7192 8.6213C30.7192 8.79547 30.7586 8.96172 30.8376 9.12005C30.9324 9.27839 31.0588 9.41297 31.2167 9.5238C31.3905 9.6188 31.6432 9.72964 31.9749 9.8563C32.3223 9.98297 32.7884 10.1255 33.3727 10.2838C34.1309 10.4896 34.7706 10.7192 35.2918 10.9725C35.8288 11.2259 36.2552 11.5188 36.5712 11.8513C36.8397 12.1363 37.0371 12.4608 37.1635 12.825C37.2899 13.1892 37.353 13.593 37.353 14.0363C37.353 14.8121 37.1319 15.5008 36.6896 16.1025C36.2632 16.7042 35.6709 17.1792 34.9127 17.5275C34.1546 17.8758 33.3016 18.05 32.354 18.05Z"
          fill="currentcolor"
        />
        <path
          d="M44.5143 18.05C43.1559 18.05 41.9634 17.7729 40.9367 17.2187C39.9259 16.6645 39.1361 15.9045 38.5675 14.9387C38.0147 13.9729 37.7383 12.8645 37.7383 11.6137C37.7383 10.6321 37.8962 9.7375 38.2121 8.93C38.5281 8.1225 38.9703 7.42584 39.5389 6.84C40.1075 6.23834 40.7788 5.77917 41.5527 5.4625C42.3425 5.13 43.1955 4.96375 44.1115 4.96375C44.9644 4.96375 45.7542 5.12209 46.4807 5.43875C47.2073 5.75542 47.8312 6.19875 48.3524 6.76875C48.8894 7.32292 49.3001 7.98792 49.5844 8.76375C49.8687 9.52375 49.9951 10.3471 49.9635 11.2337L49.9398 12.2787H39.8706L39.3257 10.2125H47.1678L46.7887 10.64V10.1175C46.7571 9.69 46.615 9.31 46.3623 8.9775C46.1254 8.62917 45.8174 8.36 45.4383 8.17C45.0592 7.96417 44.6327 7.86125 44.1589 7.86125C43.4639 7.86125 42.8716 7.99584 42.382 8.265C41.9081 8.53417 41.5448 8.93 41.2921 9.4525C41.0394 9.975 40.9131 10.6083 40.9131 11.3525C40.9131 12.1125 41.071 12.7695 41.3869 13.3237C41.7186 13.8779 42.1767 14.3133 42.7611 14.63C43.3613 14.9308 44.0641 15.0812 44.8697 15.0812C45.4225 15.0812 45.9279 14.9942 46.386 14.82C46.8441 14.6458 47.3337 14.345 47.8549 13.9175L49.466 16.1737C49.0079 16.5854 48.5025 16.9337 47.9497 17.2187C47.3968 17.4879 46.8282 17.6937 46.2438 17.8362C45.6594 17.9787 45.0829 18.05 44.5143 18.05Z"
          fill="currentcolor"
        />
        <path
          d="M51.2646 17.8125V5.2488H54.4868L54.5816 7.8138L53.9182 8.0988C54.092 7.5288 54.4 7.01422 54.8422 6.55505C55.3003 6.08005 55.8452 5.70005 56.477 5.41505C57.1088 5.13005 57.7722 4.98755 58.4671 4.98755C59.4148 4.98755 60.2046 5.17755 60.8363 5.55755C61.484 5.93755 61.9658 6.51547 62.2816 7.2913C62.6133 8.0513 62.7791 8.99339 62.7791 10.1175V17.8125H59.4148V10.3788C59.4148 9.8088 59.3359 9.3338 59.1779 8.9538C59.02 8.5738 58.7751 8.29672 58.4434 8.12255C58.1276 7.94838 57.7326 7.86922 57.2588 7.88505C56.8797 7.88505 56.5243 7.94839 56.1926 8.07505C55.8768 8.18588 55.6003 8.35214 55.3634 8.5738C55.1424 8.79547 54.9606 9.0488 54.8185 9.3338C54.6922 9.6188 54.629 9.92755 54.629 10.26V17.8125H52.9705C52.6073 17.8125 52.2834 17.8125 51.9991 17.8125C51.7148 17.8125 51.4701 17.8125 51.2646 17.8125Z"
          fill="currentcolor"
        />
        <path
          d="M69.7228 18.05C68.6172 18.05 67.6301 17.773 66.7613 17.2188C65.9083 16.6488 65.2292 15.8808 64.7237 14.915C64.2341 13.9333 63.9893 12.8013 63.9893 11.5188C63.9893 10.268 64.2341 9.15172 64.7237 8.17005C65.2292 7.17255 65.9083 6.39672 66.7613 5.84255C67.6301 5.27255 68.6172 4.98755 69.7228 4.98755C70.3073 4.98755 70.868 5.08255 71.405 5.27255C71.9578 5.44672 72.4474 5.69214 72.8739 6.0088C73.3162 6.32547 73.6716 6.68172 73.94 7.07755C74.2086 7.45755 74.3587 7.85339 74.3902 8.26505L73.5373 8.4313V0.237549H76.9253V17.8125H73.7268L73.5846 14.915L74.248 14.9863C74.2165 15.3821 74.0744 15.7621 73.8216 16.1263C73.5689 16.4905 73.2293 16.823 72.8028 17.1238C72.3922 17.4088 71.9184 17.6383 71.3813 17.8125C70.86 17.9708 70.3073 18.05 69.7228 18.05ZM70.4809 15.2475C71.1128 15.2475 71.6656 15.0892 72.1394 14.7725C72.6133 14.4558 72.9845 14.0205 73.2529 13.4663C73.5215 12.9121 73.6557 12.263 73.6557 11.5188C73.6557 10.7905 73.5215 10.1492 73.2529 9.59505C72.9845 9.04089 72.6133 8.60547 72.1394 8.2888C71.6656 7.97214 71.1128 7.8138 70.4809 7.8138C69.8492 7.8138 69.2963 7.97214 68.8225 8.2888C68.3645 8.60547 68.0012 9.04089 67.7326 9.59505C67.48 10.1492 67.3536 10.7905 67.3536 11.5188C67.3536 12.263 67.48 12.9121 67.7326 13.4663C68.0012 14.0205 68.3645 14.4558 68.8225 14.7725C69.2963 15.0892 69.8492 15.2475 70.4809 15.2475Z"
          fill="currentcolor"
        />
      </g>
      <defs>
        <clipPath id="clip0_52_626">
          <rect width="77" height="19" fill="white" />
        </clipPath>
      </defs>
    </symbol>
    <symbol
      id="makeswift"
      width="96"
      height="19"
      viewBox="0 0 96 19"
      fill="none"
      xmlns="http://www.w3.org/2000/svg"
    >
      <path
        fill-rule="evenodd"
        clip-rule="evenodd"
        d="M13.6 3.91875C13.4769 3.8 13.3538 3.74063 13.1692 3.8H11.3846C11.1385 3.8 10.8923 3.91875 10.7692 4.09688L6.95385 8.84688L4.86154 4.09688C4.73846 3.85938 4.49231 3.74063 4.24615 3.8H2.52308C2.21538 3.8 1.90769 3.97812 1.90769 4.275L0 14.725C0 14.8438 0 15.0219 0.0615385 15.1406C0.184615 15.2594 0.307692 15.3188 0.492308 15.2594H2.27692C2.58462 15.2594 2.89231 15.0219 2.89231 14.725L4 8.55L5.78462 12.5281C5.84615 12.7063 6.03077 12.825 6.21538 12.7656C6.4 12.7656 6.58462 12.6469 6.70769 12.5281L9.90769 8.55L8.8 14.725C8.73846 14.8438 8.8 15.0219 8.86154 15.1406C8.98462 15.2594 9.10769 15.3188 9.29231 15.2594H11.0769C11.3846 15.2594 11.6923 15.0219 11.6923 14.725L13.6 4.275C13.6615 4.15625 13.6615 4.0375 13.6 3.91875ZM21.7846 4.21562C21.7231 3.91875 21.4769 3.68125 21.1692 3.74063H18.8308C18.6462 3.74063 18.5231 3.74062 18.4 3.85938C18.2769 3.97813 18.2154 4.09687 18.1538 4.21562L12.5538 14.6062C12.4308 14.725 12.4308 14.9031 12.4923 15.0813C12.5538 15.2 12.7385 15.3188 12.8615 15.2594H14.8923C15.2 15.2594 15.5077 15.0813 15.5692 14.7844L16.4923 13.0625H20.2462L20.4923 14.725C20.4923 15.0219 20.7385 15.2594 21.0462 15.2C21.0462 15.2 21.0462 15.2 21.1077 15.2H23.0769C23.2615 15.2 23.3846 15.1406 23.5077 15.0219C23.6308 14.9031 23.6308 14.725 23.6308 14.5469L21.7846 4.21562ZM17.5385 10.6281L19.5692 6.70937L20.1231 10.6281H17.5385ZM30.5846 9.14375L35.5692 4.45312C35.6923 4.33437 35.7538 4.15625 35.7538 3.97812C35.6923 3.8 35.5692 3.68125 35.3846 3.74063H33.1692C32.8615 3.8 32.5538 3.91875 32.3692 4.15625L28.6769 7.6L29.2923 4.275C29.3538 4.15625 29.2923 3.97813 29.2308 3.85938C29.1077 3.74062 28.9846 3.68125 28.8 3.74063H26.8923C26.5846 3.74063 26.2769 3.91875 26.2769 4.21562L24.3692 14.6656C24.3077 14.7844 24.3692 14.9625 24.4308 15.0813C24.5538 15.2 24.6769 15.2594 24.8615 15.2H26.7692C27.0769 15.2 27.3846 15.0219 27.3846 14.725L28.1846 10.45L30.7692 14.7844C30.8923 15.0813 31.1385 15.2594 31.5077 15.2594H33.4769C33.6615 15.2594 33.8462 15.2 33.9077 15.0219C33.9692 14.8438 33.9692 14.6656 33.8462 14.5469L30.5846 9.14375ZM43.2615 8.37187C43.1385 8.25313 43.0154 8.25313 42.8923 8.25313H38.7692L39.1385 6.23438H43.5077C43.8154 6.23438 44.1231 6.05625 44.1231 5.7L44.3692 4.33437C44.4308 4.21563 44.3692 4.0375 44.3077 3.91875C44.1846 3.8 44.0615 3.74063 43.8769 3.8H37.1077C36.8 3.8 36.5538 3.97812 36.4923 4.275L34.5846 14.725C34.5231 14.8438 34.5846 15.0219 34.6462 15.1406C34.7692 15.2594 34.8923 15.3188 35.0769 15.2594H41.9077C42.2154 15.2594 42.5231 15.0219 42.5231 14.725L42.7692 13.3594C42.8308 13.2406 42.7692 13.0625 42.7077 12.9437C42.5846 12.825 42.4615 12.7656 42.2769 12.825H37.9077L38.3385 10.6281H42.4615C42.7692 10.6281 43.0769 10.3906 43.0769 10.0938L43.3231 8.7875C43.3846 8.60938 43.3231 8.49063 43.2615 8.37187ZM53.1692 4.21562C52.1231 3.74062 50.9538 3.50312 49.7846 3.5625C48.4923 3.50312 47.2615 3.85938 46.2154 4.5125C45.2923 5.16563 44.8 6.29375 44.8615 7.42188C44.8 8.13437 45.1077 8.84688 45.6615 9.38125C46.2769 9.91563 47.0154 10.3312 47.8154 10.5687C48.3077 10.7469 48.7385 10.925 49.1692 11.1625C49.4154 11.2812 49.6 11.5188 49.6 11.8156C49.6 12.2312 49.3538 12.5875 48.9231 12.7063C48.4308 12.8844 47.8769 13.0031 47.3231 13.0031C46.4615 13.0031 45.6615 12.825 44.9231 12.5281C44.6154 12.4094 44.3077 12.5281 44.1846 12.825C44.1846 12.825 44.1846 12.825 44.1846 12.8844L43.5077 14.1312C43.3846 14.3094 43.4462 14.6062 43.6308 14.7844L43.6923 14.8438C44.1846 15.0813 44.7385 15.2594 45.2923 15.3781C46.0308 15.4969 46.7692 15.5563 47.5077 15.5563C48.8 15.6156 50.0923 15.2594 51.2 14.5469C52.1846 13.8344 52.7385 12.7656 52.6769 11.5781C52.6769 11.1625 52.6154 10.8063 52.4308 10.45C52.2462 10.0938 52 9.79688 51.6923 9.55937C51.3846 9.32188 51.0769 9.14375 50.7692 8.96562C50.4615 8.7875 50.0923 8.60938 49.6 8.43125C49.1077 8.25313 48.6769 8.01562 48.2462 7.77813C48 7.65938 47.8769 7.42188 47.8769 7.18438C47.8769 6.47188 48.4923 6.11562 49.7846 6.11562C50.5231 6.11562 51.2615 6.23438 51.9385 6.47187C52.2462 6.59062 52.5538 6.47188 52.6769 6.23438V6.175L53.3538 4.9875C53.4769 4.75 53.4154 4.5125 53.2308 4.33437C53.1692 4.21563 53.1692 4.21562 53.1692 4.21562ZM70.0308 3.74063H68.0615C67.7538 3.74063 67.4462 3.91875 67.3846 4.21562L65.2923 9.025L64.2462 11.6375L64.0615 9.025L63.6923 4.21562C63.6923 3.91875 63.4462 3.68125 63.1385 3.74063H63.0769H61.4154C61.1077 3.74063 60.8 3.91875 60.6769 4.21562L58.4615 9.025L57.3538 11.6375L57.2308 9.08438L56.9231 4.275C56.9231 3.97812 56.6769 3.74063 56.3692 3.8H56.3077H54.4C54.2769 3.8 54.1539 3.85938 54.0308 3.91875C53.9077 4.0375 53.8462 4.275 53.9077 4.45312L54.9538 14.8438C54.9538 15.1406 55.2 15.3781 55.5077 15.3187H55.5692H57.6615C57.9692 15.3187 58.2769 15.1406 58.4 14.8438L60.5538 10.2719L61.4769 8.075L61.6615 10.2125L62.1538 14.7844C62.1538 15.0813 62.4 15.3187 62.7077 15.3187H62.7692H64.8615C65.1692 15.3187 65.4769 15.1406 65.6 14.8438L70.4615 4.45312C70.5231 4.33437 70.5846 4.15625 70.4615 3.97812C70.3385 3.8 70.2154 3.74063 70.0308 3.74063ZM85.9077 3.74063H79.2615C78.9538 3.74063 78.6462 3.91875 78.6462 4.21562L76.7385 14.6656C76.6769 14.7844 76.7385 14.9625 76.8 15.0813C76.9231 15.2 77.0462 15.2594 77.2308 15.2H79.0769C79.3846 15.2 79.6923 14.9625 79.6923 14.6656L80.3692 10.8063H84.4923C84.8 10.8063 85.1077 10.6281 85.1077 10.2719L85.3538 8.90625C85.4154 8.7875 85.3539 8.60938 85.2923 8.49063C85.1692 8.37187 85.0462 8.3125 84.8615 8.37187H80.8L81.2308 6.11562H85.5385C85.8462 6.11562 86.1538 5.9375 86.1538 5.64062L86.4 4.275C86.4615 4.15625 86.4 3.97813 86.3385 3.85938C86.2154 3.8 86.0308 3.74063 85.9077 3.74063ZM95.9385 3.91875C95.8154 3.8 95.6923 3.74063 95.5077 3.8H87.6923C87.3846 3.8 87.1385 3.97813 87.0769 4.33437L86.7692 5.75938C86.7077 5.87812 86.7692 6.05625 86.8308 6.175C86.9538 6.29375 87.0769 6.35313 87.2615 6.29375H89.6L88.0615 14.6656C88 14.7844 88.0615 14.9625 88.1231 15.0813C88.2462 15.2 88.3692 15.2594 88.5538 15.2H90.4615C90.7692 15.2 91.0769 14.9625 91.0769 14.6656L92.6154 6.29375H95.0154C95.3231 6.29375 95.6308 6.05625 95.6308 5.75938L95.8769 4.275C96 4.15625 96 4.0375 95.9385 3.91875ZM71.8154 6.35313H73.0462L71.9385 10.3313C71.8769 10.5094 72 10.6281 72.1231 10.6875H72.1846H72.7385C72.9231 10.6875 73.0462 10.6281 73.1077 10.45L76.8615 4.39375C76.9846 4.21563 76.9231 3.91875 76.6769 3.8C76.6154 3.74063 76.5538 3.74063 76.4308 3.74063H75.0769L77.2308 0.653125C77.3539 0.475 77.2923 0.178125 77.1077 0.059375C77.1692 0 77.0462 0 76.9846 0H73.5385C73.2923 0 73.0462 0.178125 72.9846 0.415625L71.4462 5.75938C71.3846 5.99687 71.5077 6.23438 71.7538 6.29375C71.7538 6.35313 71.8154 6.35313 71.8154 6.35313ZM73.3538 12.4094H71.3846C71.1385 12.4094 70.8923 12.5875 70.8308 12.825L70.3385 14.725C70.2769 14.9625 70.4 15.2 70.6462 15.2594C70.7077 15.2594 70.7077 15.2594 70.7692 15.2594H72.7385C72.9846 15.2594 73.2308 15.0813 73.2923 14.8438L73.7846 12.9437C73.8462 12.7062 73.7231 12.4688 73.4769 12.4094C73.4154 12.4094 73.4154 12.4094 73.3538 12.4094Z"
        fill="#F02EA6"
      />
    </symbol>
    <symbol
      id="supabase"
      xmlns="http://www.w3.org/2000/svg"
      width="100"
      height="19"
      fill="none"
      class="text-[#1F1F1F] dark:text-neutral-100"
      viewBox="0 0 100 19"
    >
      <g clip-path="url(#a)">
        <path
          fill="currentcolor"
          d="M26.058 11.225c.103.942.98 2.557 3.525 2.557 2.218 0 3.284-1.38 3.284-2.725 0-1.21-.843-2.203-2.51-2.54l-1.204-.252c-.465-.084-.774-.336-.774-.74 0-.47.481-.824 1.083-.824.963 0 1.324.623 1.393 1.11l1.909-.42c-.104-.892-.912-2.388-3.319-2.388-1.823 0-3.164 1.227-3.164 2.707 0 1.16.74 2.12 2.373 2.473l1.118.252c.653.134.911.437.911.807 0 .437-.361.824-1.118.824-.997 0-1.496-.605-1.547-1.261l-1.96.42Zm14.118 2.305h2.183a13.31 13.31 0 0 1-.086-1.497V5.255h-2.287v4.81c0 .958-.584 1.631-1.599 1.631-1.066 0-1.547-.74-1.547-1.665V5.255h-2.287v5.23c0 1.8 1.169 3.263 3.215 3.263.894 0 1.875-.336 2.339-1.11 0 .336.034.723.069.891ZM47 16.725v-4.003c.413.555 1.273 1.01 2.442 1.01 2.39 0 3.99-1.85 3.99-4.357 0-2.455-1.428-4.305-3.904-4.305-1.272 0-2.218.555-2.596 1.194v-1.01h-2.218v11.47H47Zm4.179-7.333c0 1.48-.928 2.338-2.098 2.338-1.169 0-2.115-.875-2.115-2.338s.946-2.32 2.115-2.32c1.17 0 2.098.857 2.098 2.32Zm3.548 1.884c0 1.295 1.1 2.489 2.906 2.489 1.255 0 2.063-.572 2.492-1.228 0 .32.035.774.087.992h2.097a9.052 9.052 0 0 1-.103-1.311v-4.07c0-1.665-.997-3.145-3.68-3.145-2.27 0-3.49 1.43-3.628 2.724l2.03.42c.068-.723.619-1.345 1.616-1.345.963 0 1.427.488 1.427 1.077 0 .285-.155.52-.636.588l-2.08.303c-1.41.202-2.528 1.026-2.528 2.506Zm3.387.824c-.74 0-1.1-.471-1.1-.959 0-.639.463-.958 1.048-1.043l1.909-.285v.37c0 1.463-.894 1.917-1.857 1.917Zm8.616 1.43v-1.01c.447.707 1.34 1.211 2.51 1.211 2.408 0 3.99-1.867 3.99-4.373 0-2.455-1.428-4.322-3.904-4.322-1.255 0-2.183.538-2.562 1.127v-4.81h-2.252V13.53h2.218Zm4.212-4.155c0 1.514-.928 2.355-2.097 2.355-1.152 0-2.115-.858-2.115-2.355 0-1.513.963-2.337 2.115-2.337 1.17 0 2.097.824 2.097 2.337Zm3.583 1.901c0 1.295 1.1 2.489 2.906 2.489 1.255 0 2.064-.572 2.493-1.228 0 .32.035.774.086.992h2.098a9.11 9.11 0 0 1-.103-1.311v-4.07c0-1.665-.997-3.145-3.68-3.145-2.27 0-3.49 1.43-3.628 2.724l2.03.42c.068-.723.618-1.345 1.615-1.345.964 0 1.428.488 1.428 1.077 0 .285-.155.52-.636.588l-2.08.303c-1.41.202-2.529 1.026-2.529 2.506Zm3.388.824c-.74 0-1.1-.471-1.1-.959 0-.639.463-.958 1.048-1.043l1.909-.285v.37c0 1.463-.894 1.917-1.857 1.917Zm5.675-.875c.103.942.98 2.557 3.525 2.557 2.218 0 3.284-1.38 3.284-2.725 0-1.21-.843-2.203-2.51-2.54l-1.204-.252c-.465-.084-.774-.336-.774-.74 0-.47.481-.824 1.083-.824.963 0 1.325.623 1.393 1.11l1.909-.42c-.103-.892-.911-2.388-3.319-2.388-1.823 0-3.163 1.227-3.163 2.707 0 1.16.739 2.12 2.372 2.473l1.118.252c.653.134.911.437.911.807 0 .437-.36.824-1.117.824-.998 0-1.496-.605-1.548-1.261l-1.96.42ZM93.87 8.45c.052-.756.706-1.631 1.892-1.631 1.307 0 1.857.807 1.892 1.631H93.87Zm4.007 2.153c-.275.74-.86 1.261-1.926 1.261-1.135 0-2.08-.79-2.132-1.883h6.053c0-.034.034-.37.034-.69 0-2.657-1.565-4.288-4.178-4.288-2.167 0-4.162 1.715-4.162 4.356 0 2.791 2.046 4.423 4.368 4.423 2.08 0 3.422-1.194 3.852-2.624l-1.909-.555Z"
        />
        <path
          fill="#3ECF8E"
          d="M10.965 18.543c-.492.606-1.49.274-1.502-.5L9.29 6.737h7.783c1.41 0 2.196 1.59 1.32 2.67l-7.428 9.137Z"
        />
        <path
          fill="#3ECF8E"
          fill-opacity=".2"
          d="M10.965 18.543c-.492.606-1.49.274-1.502-.5L9.29 6.737h7.783c1.41 0 2.196 1.59 1.32 2.67l-7.428 9.137Z"
        />
        <path
          fill="#3ECF8E"
          d="M7.8.348c.492-.605 1.49-.274 1.501.5l.076 11.307H1.692c-1.41 0-2.196-1.59-1.32-2.669L7.8.348Z"
        />
      </g>
    </symbol>
    <symbol
      id="linear"
      width="78"
      height="20"
      viewBox="0 0 78 20"
      fill="none"
      xmlns="http://www.w3.org/2000/svg"
      class="text-neutral-900 dark:text-neutral-100"
    >
      <g clip-path="url(#clip0_52_620)">
        <path
          fill-rule="evenodd"
          clip-rule="evenodd"
          d="M2.52117 3.27426C2.41815 3.39038 2.42497 3.56854 2.5332 3.67956L15.9091 17.3985C16.0174 17.5095 16.1911 17.5165 16.3043 17.4108C18.2656 15.5804 19.4967 12.9413 19.4967 10.0072C19.4967 4.4804 15.1283 0 9.73966 0C6.87899 0 4.30584 1.26267 2.52117 3.27426ZM0.84938 5.87788C0.799951 5.98966 0.824874 6.12072 0.909487 6.2075L13.4444 19.0638C13.529 19.1506 13.6568 19.1762 13.7658 19.1255C14.0554 18.9908 14.3374 18.842 14.611 18.6799C14.7736 18.5836 14.7985 18.356 14.6657 18.2198L1.73236 4.95484C1.59957 4.81864 1.37767 4.8442 1.28378 5.011C1.1258 5.29164 0.980724 5.58088 0.84938 5.87788ZM0.0889264 9.5592C0.0302355 9.499 -0.000992005 9.41604 0.00453323 9.3311C0.0304102 8.93328 0.078953 8.54184 0.148849 8.1581C0.190759 7.928 0.464891 7.84816 0.626269 8.01366L11.6834 19.3543C11.8448 19.5198 11.7669 19.801 11.5426 19.844C11.1684 19.9157 10.7868 19.9654 10.3989 19.992C10.3161 19.9976 10.2352 19.9656 10.1765 19.9054L0.0889264 9.5592ZM0.767474 12.3518C0.566019 12.1452 0.240919 12.3232 0.314698 12.6054C1.21358 16.0441 3.85376 18.7519 7.20641 19.6739C7.4816 19.7495 7.65518 19.4161 7.45373 19.2095L0.767474 12.3518ZM39.3129 5.507C40.0123 5.507 40.5792 4.9234 40.5792 4.2035C40.5792 3.4836 40.0123 2.9 39.3129 2.9C38.6136 2.9 38.0467 3.4836 38.0467 4.2035C38.0467 4.9234 38.6136 5.507 39.3129 5.507ZM28.4668 16.8749V2.90078H30.7171V14.8304H36.7845V16.8749H28.4668ZM44.4833 11.1727V16.8749H42.3059V6.9711H44.456V8.66862L44.4833 8.64988C44.7019 8.11842 45.0543 7.6745 45.5402 7.3181C46.0259 6.95546 46.6455 6.77414 47.3987 6.77414C48.0668 6.77414 48.674 6.92734 49.2208 7.2337C49.7674 7.53382 50.2046 7.9746 50.5326 8.55608C50.8606 9.13756 51.0246 9.85034 51.0246 10.6944V16.8749H48.8472V11.0039C48.8472 10.2536 48.6528 9.68464 48.2641 9.297C47.8816 8.9031 47.3683 8.70614 46.7244 8.70614C46.3114 8.70614 45.9349 8.79368 45.5948 8.96874C45.2547 9.14382 44.9844 9.41266 44.784 9.7753C44.5835 10.1379 44.4833 10.6037 44.4833 11.1727ZM64.1988 16.7061C64.6968 16.9249 65.2678 17.0344 65.9115 17.0344C66.4399 17.0344 66.8923 16.9656 67.2689 16.828C67.6456 16.6842 67.9553 16.4935 68.1982 16.2559C68.4472 16.0183 68.6446 15.7589 68.7904 15.4775H68.8269V16.8749H70.9132V10.0567C70.9132 9.57522 70.8219 9.13444 70.6398 8.73428C70.4577 8.33412 70.1935 7.98712 69.8471 7.69326C69.5071 7.39938 69.0941 7.1743 68.6081 7.018C68.1224 6.85542 67.5756 6.77414 66.9684 6.77414C66.1363 6.77414 65.4165 6.92108 64.8091 7.21494C64.2077 7.50256 63.7372 7.8902 63.3969 8.3779C63.0568 8.86558 62.8716 9.4158 62.8412 10.0285H64.9458C64.97 9.74092 65.0673 9.48456 65.2373 9.25948C65.4074 9.0344 65.6383 8.85932 65.9298 8.73428C66.2213 8.60298 66.5583 8.53732 66.9411 8.53732C67.3236 8.53732 67.6485 8.60298 67.9159 8.73428C68.1891 8.86558 68.3987 9.04378 68.5443 9.26886C68.6902 9.49394 68.7631 9.75654 68.7631 10.0567V10.1317C68.7631 10.3568 68.6871 10.5225 68.5354 10.6288C68.3895 10.735 68.1405 10.8132 67.7883 10.8632C67.442 10.9132 66.9684 10.9726 66.367 11.0414C65.875 11.0977 65.4013 11.1821 64.9458 11.2946C64.4903 11.4072 64.0833 11.5729 63.7249 11.7917C63.3727 12.0105 63.0933 12.3013 62.8868 12.6639C62.6803 13.0266 62.5772 13.4924 62.5772 14.0613C62.5772 14.7178 62.7228 15.268 63.0143 15.712C63.3059 16.1496 63.7007 16.481 64.1988 16.7061ZM67.7246 15.0461C67.3722 15.2399 66.9379 15.3368 66.4218 15.3368C65.8994 15.3368 65.4832 15.2243 65.1736 14.9992C64.8637 14.7679 64.7089 14.4521 64.7089 14.052C64.7089 13.7393 64.7939 13.4861 64.964 13.2923C65.1402 13.0985 65.3709 12.9453 65.6564 12.8327C65.9419 12.7202 66.2515 12.642 66.5856 12.5983C66.8285 12.5608 67.0655 12.5232 67.2963 12.4857C67.527 12.442 67.7427 12.4013 67.9432 12.3638C68.1436 12.32 68.3137 12.2763 68.4533 12.2325C68.5991 12.1887 68.7054 12.1418 68.7721 12.0918V13.1985C68.7721 13.5861 68.6842 13.9425 68.5079 14.2677C68.3378 14.5865 68.0767 14.846 67.7246 15.0461ZM72.8129 16.8749V6.9711H74.9082V8.60298H74.9357C75.1117 8.04026 75.3881 7.61198 75.7646 7.3181C76.1472 7.018 76.6484 6.86794 77.2679 6.86794C77.4198 6.86794 77.5565 6.87418 77.6778 6.8867C77.8055 6.89294 77.9118 6.8992 77.9968 6.90544V8.92184C77.9178 8.90934 77.778 8.89372 77.5777 8.87496C77.3773 8.8562 77.1647 8.84682 76.9399 8.84682C76.5815 8.84682 76.2537 8.93122 75.9559 9.10004C75.6583 9.26886 75.4214 9.52834 75.2453 9.87846C75.0753 10.2224 74.9903 10.6569 74.9903 11.1821V16.8749H72.8129ZM38.2197 16.8749V6.9711H40.3971V16.8749H38.2197ZM54.6461 16.4341C55.3446 16.878 56.1737 17.1 57.1333 17.1C57.8743 17.1 58.5485 16.9624 59.1559 16.6873C59.7693 16.406 60.2795 16.0215 60.6864 15.5338C61.0934 15.0398 61.3576 14.4709 61.4791 13.8269H59.4293C59.338 14.1207 59.1892 14.3802 58.9827 14.6053C58.7824 14.8241 58.5303 14.9961 58.2267 15.1211C57.9229 15.2462 57.5707 15.3087 57.1698 15.3087C56.6293 15.3087 56.1646 15.1836 55.7759 14.9335C55.3934 14.6834 55.1018 14.3364 54.9014 13.8925C54.7194 13.4839 54.62 13.0212 54.6032 12.5045H61.6066V11.9042C61.6066 11.1415 61.4972 10.4474 61.2786 9.8222C61.0601 9.1907 60.7502 8.64674 60.3493 8.19032C59.9485 7.72764 59.4657 7.37126 58.9008 7.12116C58.3419 6.87106 57.7195 6.74602 57.0331 6.74602C56.1404 6.74602 55.3508 6.96798 54.6644 7.4119C53.978 7.85582 53.4406 8.46856 53.0518 9.2501C52.6632 10.0317 52.4687 10.9257 52.4687 11.9324C52.4687 12.9328 52.6571 13.8237 53.0337 14.6053C53.4102 15.3806 53.9478 15.9902 54.6461 16.4341ZM59.2288 9.87846C59.0283 9.4533 58.7429 9.12506 58.3724 8.89372C58.0019 8.66238 57.5647 8.5467 57.0604 8.5467C56.5624 8.5467 56.1281 8.66238 55.7576 8.89372C55.3933 9.12506 55.1079 9.4533 54.9014 9.87846C54.7539 10.1864 54.6607 10.5365 54.6217 10.9289H59.5082C59.4692 10.5365 59.376 10.1864 59.2288 9.87846Z"
          fill="currentColor"
        />
      </g>
      <defs>
        <clipPath id="clip0_52_620">
          <rect width="78" height="20" fill="white" />
        </clipPath>
      </defs>
    </symbol>
    <symbol
      id="react"
      width="15"
      height="16"
      viewBox="0 0 14 14"
      fill="none"
      xmlns="http://www.w3.org/2000/svg"
    >
      <path
        d="M12.3029 5.50126C12.3029 4.68299 11.2822 3.90753 9.71741 3.42664C10.0785 1.82536 9.91803 0.551385 9.21085 0.143511C9.04785 0.047837 8.85726 0.0025177 8.64912 0.0025177V0.563973C8.76447 0.563973 8.85726 0.586633 8.935 0.629435C9.27605 0.825818 9.42401 1.57359 9.30865 2.53536C9.28107 2.77203 9.23593 3.02129 9.18076 3.27558C8.68924 3.15473 8.15259 3.06157 7.58836 3.00114C7.24981 2.53536 6.89873 2.11238 6.54515 1.74227C7.36266 0.9794 8.13002 0.561456 8.65163 0.561456V0C7.96201 0 7.05923 0.493477 6.14642 1.34951C5.23361 0.498512 4.33083 0.010071 3.64121 0.010071V0.571527C4.16031 0.571527 4.93017 0.986953 5.74769 1.74479C5.39661 2.1149 5.04553 2.53536 4.712 3.00114C4.14526 3.06157 3.60861 3.15473 3.11709 3.2781C3.05942 3.02632 3.01679 2.7821 2.98669 2.54795C2.86883 1.58618 3.01428 0.838407 3.35282 0.639506C3.42805 0.594186 3.52585 0.574044 3.64121 0.574044V0.0125887C3.43056 0.0125887 3.23997 0.0579079 3.07446 0.153582C2.36979 0.561456 2.21181 1.83291 2.57543 3.42916C1.01563 3.91257 0 4.68551 0 5.50126C0 6.31952 1.02064 7.09499 2.58546 7.57587C2.22435 9.17716 2.38484 10.4511 3.09202 10.859C3.25502 10.9547 3.44561 11 3.65625 11C4.34588 11 5.24865 10.5065 6.16146 9.65049C7.07427 10.5015 7.97705 10.9899 8.66667 10.9899C8.87732 10.9899 9.06791 10.9446 9.23342 10.8489C9.93809 10.4411 10.0961 9.1696 9.73245 7.57336C11.2872 7.09247 12.3029 6.31701 12.3029 5.50126ZM9.03782 3.82193C8.94503 4.14672 8.82968 4.48157 8.69927 4.81643C8.59646 4.61501 8.48863 4.4136 8.37076 4.21218C8.25541 4.01076 8.13253 3.81437 8.00965 3.62303C8.36575 3.6759 8.70931 3.74136 9.03782 3.82193ZM7.88928 6.50332C7.69368 6.84321 7.49306 7.16548 7.28492 7.46509C6.91127 7.49782 6.53261 7.51545 6.15143 7.51545C5.77277 7.51545 5.3941 7.49783 5.02296 7.46761C4.81482 7.168 4.61169 6.84825 4.41609 6.51087C4.22551 6.18105 4.05247 5.84619 3.89449 5.50881C4.04997 5.17143 4.22551 4.83406 4.41358 4.50423C4.60919 4.16434 4.8098 3.84207 5.01794 3.54246C5.39159 3.50973 5.77026 3.4921 6.15143 3.4921C6.5301 3.4921 6.90876 3.50973 7.27991 3.53994C7.48805 3.83955 7.69117 4.1593 7.88677 4.49668C8.07736 4.8265 8.25039 5.16136 8.40838 5.49874C8.25039 5.83612 8.07736 6.17349 7.88928 6.50332ZM8.69927 6.17601C8.83469 6.51339 8.95005 6.85077 9.04534 7.17807C8.71683 7.25864 8.37076 7.32662 8.01216 7.37949C8.13504 7.18563 8.25792 6.98672 8.37327 6.78279C8.48863 6.58137 8.59646 6.37743 8.69927 6.17601ZM6.15645 8.86244C5.92323 8.62074 5.69001 8.35134 5.4593 8.05676C5.685 8.06683 5.91571 8.07439 6.14893 8.07439C6.38465 8.07439 6.61787 8.06935 6.84607 8.05676C6.62038 8.35134 6.38716 8.62074 6.15645 8.86244ZM4.29071 7.37949C3.93461 7.32662 3.59105 7.26116 3.26254 7.18059C3.35533 6.8558 3.47068 6.52094 3.60108 6.18608C3.7039 6.3875 3.81173 6.58892 3.92959 6.79034C4.04746 6.99176 4.16783 7.18814 4.29071 7.37949ZM6.14391 2.14008C6.37713 2.38178 6.61035 2.65118 6.84106 2.94575C6.61536 2.93568 6.38465 2.92813 6.15143 2.92813C5.91571 2.92813 5.68249 2.93317 5.45429 2.94575C5.67998 2.65118 5.9132 2.38178 6.14391 2.14008ZM4.2882 3.62303C4.16532 3.81689 4.04244 4.01579 3.92709 4.21973C3.81173 4.42115 3.7039 4.62257 3.60108 4.82399C3.46567 4.48661 3.35031 4.14923 3.25502 3.82193C3.58353 3.74388 3.9296 3.6759 4.2882 3.62303ZM2.01871 6.77523C1.13098 6.39506 0.556713 5.89654 0.556713 5.50126C0.556713 5.10597 1.13098 4.60494 2.01871 4.22728C2.23438 4.13413 2.4701 4.05104 2.71335 3.97299C2.85629 4.46647 3.04437 4.98009 3.27759 5.50629C3.04688 6.02998 2.86131 6.54108 2.72088 7.03204C2.47261 6.95399 2.23689 6.86839 2.01871 6.77523ZM3.36787 10.3731C3.02682 10.1767 2.87886 9.42893 2.99422 8.46715C3.0218 8.23049 3.06694 7.98123 3.12211 7.72694C3.61362 7.84779 4.15027 7.94095 4.71451 8.00137C5.05305 8.46715 5.40413 8.89013 5.75772 9.26024C4.94021 10.0231 4.17284 10.4411 3.65124 10.4411C3.53839 10.4385 3.4431 10.4159 3.36787 10.3731ZM9.31617 8.45457C9.43404 9.41634 9.28859 10.1641 8.95005 10.363C8.87481 10.4083 8.77701 10.4285 8.66166 10.4285C8.14256 10.4285 7.37269 10.013 6.55518 9.25521C6.90626 8.8851 7.25734 8.46464 7.59086 7.99886C8.15761 7.93843 8.69426 7.84527 9.18577 7.7219C9.24345 7.9762 9.28859 8.22042 9.31617 8.45457ZM10.2816 6.77523C10.066 6.86839 9.83026 6.95148 9.58701 7.02953C9.44407 6.53605 9.25599 6.02243 9.02277 5.49622C9.25348 4.97253 9.43905 4.46143 9.57948 3.97047C9.82775 4.04852 10.0635 4.13413 10.2842 4.22728C11.1719 4.60746 11.7462 5.10597 11.7462 5.50126C11.7436 5.89654 11.1694 6.39757 10.2816 6.77523Z"
        fill="#61DAFB"
      />
      <path
        d="M6.13697 6.65389C6.77191 6.65389 7.28663 6.13725 7.28663 5.49994C7.28663 4.86263 6.77191 4.34599 6.13697 4.34599C5.50203 4.34599 4.9873 4.86263 4.9873 5.49994C4.9873 6.13725 5.50203 6.65389 6.13697 6.65389Z"
        fill="#61DAFB"
      />
    </symbol>
    <symbol
      id="vercel"
      width="13"
      height="11"
      viewBox="0 0 13 11"
      fill="none"
      xmlns="http://www.w3.org/2000/svg"
    >
      <path
        fillRule="evenodd"
        clipRule="evenodd"
        d="M6.5 0L13 11H0L6.5 0Z"
        fill="currentColor"
      />
    </symbol>
    <symbol
      id="youtube"
      width="15"
      height="11"
      viewBox="0 0 15 11"
      fill="none"
      xmlns="http://www.w3.org/2000/svg"
    >
      <path
        d="M4.23047 7.01409V7.01437C4.23422 7.15313 4.23547 7.29269 4.25879 7.43058C4.28362 7.57647 4.3191 7.71873 4.38678 7.85115C4.47829 8.03036 4.60358 8.18176 4.76263 8.30534C4.87653 8.3941 5.00097 8.46458 5.13871 8.50903C5.33954 8.57377 5.54674 8.59857 5.75698 8.59979C5.88814 8.60062 6.01923 8.60389 6.15045 8.60334C7.10333 8.59934 8.05624 8.61022 9.00917 8.59747C9.13561 8.59577 9.25999 8.58034 9.3841 8.55766C9.62196 8.51416 9.83217 8.41265 10.012 8.25241C10.2216 8.06562 10.3631 7.83697 10.4269 7.56105C10.4687 7.38068 10.4791 7.19771 10.4809 7.01407V6.97744C10.4809 6.96324 10.4755 3.85737 10.475 3.81632C10.4736 3.70356 10.4653 3.59162 10.4441 3.48066C10.4184 3.34545 10.382 3.21369 10.3173 3.09137C10.2488 2.96211 10.1631 2.84593 10.057 2.74437C9.89467 2.58878 9.70728 2.47877 9.48904 2.42056C9.29202 2.36806 9.09102 2.35635 8.88851 2.35655C8.88786 2.35564 8.88747 2.35457 8.88739 2.35345H5.82286C5.82286 2.3545 5.82286 2.35553 5.82269 2.35655C5.70776 2.35866 5.59268 2.35778 5.47836 2.37196C5.35313 2.38751 5.22907 2.41094 5.11054 2.45469C4.92382 2.5237 4.76158 2.63118 4.62301 2.77472C4.466 2.93723 4.35528 3.1253 4.29663 3.34425C4.24421 3.53959 4.2328 3.73881 4.23252 3.93945"
        fill="white"
      />
      <path
        d="M7.75735 9.75221L5.18249 9.7052C4.34881 9.68881 3.51306 9.72152 2.69572 9.55178C1.45237 9.29819 1.36428 8.05475 1.27211 7.01174C1.14511 5.5454 1.19428 4.05245 1.43394 2.59835C1.56925 1.78245 2.10171 1.29559 2.92514 1.24262C5.70483 1.05035 8.50301 1.07313 11.2765 1.16283C11.5695 1.17106 11.8644 1.216 12.1532 1.26716C13.579 1.51668 13.6137 2.92577 13.7062 4.11196C13.7983 5.31039 13.7594 6.51497 13.5833 7.70524C13.4419 8.69075 13.1715 9.5172 12.0303 9.59698C10.6005 9.7013 9.20347 9.78529 7.76961 9.75855C7.76967 9.75221 7.76144 9.75221 7.75735 9.75221ZM6.24358 7.25718C7.32108 6.63951 8.37802 6.03213 9.44936 5.4186C8.36985 4.80093 7.31492 4.19356 6.24358 3.58003V7.25718Z"
        fill="#FF0000"
      />
    </symbol>
    <symbol id="bun" xmlns="http://www.w3.org/2000/svg" viewBox="0 0 80 70">
      <path d="M71.09 20.74c-.16-.17-.33-.34-.5-.5s-.33-.34-.5-.5-.33-.34-.5-.5-.33-.34-.5-.5-.33-.34-.5-.5-.33-.34-.5-.5-.33-.34-.5-.5A26.46 26.46 0 0 1 75.5 35.7c0 16.57-16.82 30.05-37.5 30.05-11.58 0-21.94-4.23-28.83-10.86l.5.5.5.5.5.5.5.5.5.5.5.5.5.5C19.55 65.3 30.14 69.75 42 69.75c20.68 0 37.5-13.48 37.5-30 0-7.06-3.04-13.75-8.41-19.01Z" />
      <path
        d="M73 35.7c0 15.21-15.67 27.54-35 27.54S3 50.91 3 35.7C3 26.27 9 17.94 18.22 13S33.18 3 38 3s8.94 4.13 19.78 10C67 17.94 73 26.27 73 35.7Z"
        style="fill:#fbf0df"
      />
      <path
        d="M73 35.7a21.67 21.67 0 0 0-.8-5.78c-2.73 33.3-43.35 34.9-59.32 24.94A40 40 0 0 0 38 63.24c19.3 0 35-12.35 35-27.54Z"
        data-name="Bottom Shadow"
        style="fill:#f6dece"
      />
      <path
        d="M24.53 11.17C29 8.49 34.94 3.46 40.78 3.45A9.29 9.29 0 0 0 38 3c-2.42 0-5 1.25-8.25 3.13-1.13.66-2.3 1.39-3.54 2.15-2.33 1.44-5 3.07-8 4.7C8.69 18.13 3 26.62 3 35.7v1.19c6.06-21.41 17.07-23.04 21.53-25.72Z"
        data-name="Light Shine"
        style="fill:#fffefc"
      />
      <path
        d="M35.12 5.53A16.41 16.41 0 0 1 29.49 18c-.28.25-.06.73.3.59 3.37-1.31 7.92-5.23 6-13.14-.08-.45-.67-.33-.67.08Zm2.27 0A16.24 16.24 0 0 1 39 19c-.12.35.31.65.55.36 2.19-2.8 4.1-8.36-1.62-14.36-.29-.26-.74.14-.54.49Zm2.76-.17A16.42 16.42 0 0 1 47 17.12a.33.33 0 0 0 .65.11c.92-3.49.4-9.44-7.17-12.53-.4-.16-.66.38-.33.62Zm-18.46 10.4a16.94 16.94 0 0 0 10.47-9c.18-.36.75-.22.66.18-1.73 8-7.52 9.67-11.12 9.45-.38.01-.37-.52-.01-.63Z"
        style="fill:#ccbea7;fill-rule:evenodd"
      />
      <path d="M38 65.75C17.32 65.75.5 52.27.5 35.7c0-10 6.18-19.33 16.53-24.92 3-1.6 5.57-3.21 7.86-4.62 1.26-.78 2.45-1.51 3.6-2.19C32 1.89 35 .5 38 .5s5.62 1.2 8.9 3.14c1 .57 2 1.19 3.07 1.87 2.49 1.54 5.3 3.28 9 5.27C69.32 16.37 75.5 25.69 75.5 35.7c0 16.57-16.82 30.05-37.5 30.05ZM38 3c-2.42 0-5 1.25-8.25 3.13-1.13.66-2.3 1.39-3.54 2.15-2.33 1.44-5 3.07-8 4.7C8.69 18.13 3 26.62 3 35.7c0 15.19 15.7 27.55 35 27.55S73 50.89 73 35.7c0-9.08-5.69-17.57-15.22-22.7-3.78-2-6.73-3.88-9.12-5.36-1.09-.67-2.09-1.29-3-1.84C42.63 4 40.42 3 38 3Z" />
      <path
        d="M45.05 43a8.93 8.93 0 0 1-2.92 4.71 6.81 6.81 0 0 1-4 1.88A6.84 6.84 0 0 1 34 47.71 8.93 8.93 0 0 1 31.12 43a.72.72 0 0 1 .8-.81h12.34a.72.72 0 0 1 .79.81Z"
        data-name="Background"
        style="fill:#b71422"
      />
      <path
        d="M34 47.79a6.91 6.91 0 0 0 4.12 1.9 6.91 6.91 0 0 0 4.11-1.9 10.63 10.63 0 0 0 1-1.07 6.83 6.83 0 0 0-4.9-2.31 6.15 6.15 0 0 0-5 2.78c.23.21.43.41.67.6Z"
        data-name="Background"
        style="fill:#ff6164"
      />
      <path
        d="M34.16 47a5.36 5.36 0 0 1 4.19-2.08 6 6 0 0 1 4 1.69c.23-.25.45-.51.66-.77a7 7 0 0 0-4.71-1.93 6.36 6.36 0 0 0-4.89 2.36 9.53 9.53 0 0 0 .75.73Z"
        data-name="Outline"
      />
      <path
        d="M38.09 50.19a7.42 7.42 0 0 1-4.45-2 9.52 9.52 0 0 1-3.11-5.05 1.2 1.2 0 0 1 .26-1 1.41 1.41 0 0 1 1.13-.51h12.34a1.44 1.44 0 0 1 1.13.51 1.19 1.19 0 0 1 .25 1 9.52 9.52 0 0 1-3.11 5.05 7.42 7.42 0 0 1-4.44 2Zm-6.17-7.4c-.16 0-.2.07-.21.09a8.29 8.29 0 0 0 2.73 4.37A6.23 6.23 0 0 0 38.09 49a6.28 6.28 0 0 0 3.65-1.73 8.3 8.3 0 0 0 2.72-4.37.21.21 0 0 0-.2-.09Z"
        data-name="Outline"
      />
      <ellipse
        cx="53.22"
        cy="40.18"
        data-name="Right Blush"
        rx="5.85"
        ry="3.44"
        style="fill:#febbd0"
      />
      <ellipse
        cx="22.95"
        cy="40.18"
        data-name="Left Bluch"
        rx="5.85"
        ry="3.44"
        style="fill:#febbd0"
      />
      <path
        d="M25.7 38.8a5.51 5.51 0 1 0-5.5-5.51 5.51 5.51 0 0 0 5.5 5.51Zm24.77 0A5.51 5.51 0 1 0 45 33.29a5.5 5.5 0 0 0 5.47 5.51Z"
        style="fill-rule:evenodd"
      />
      <path
        d="M24 33.64a2.07 2.07 0 1 0-2.06-2.07A2.07 2.07 0 0 0 24 33.64Zm24.77 0a2.07 2.07 0 1 0-2.06-2.07 2.07 2.07 0 0 0 2.04 2.07Z"
        style="fill:#fff;fill-rule:evenodd"
      />
    </symbol>

    <!-- GitHub logo -->
    <symbol id="github" viewBox="0 0 24 24" fill="currentColor">
      <path d="M12 0C5.374 0 0 5.373 0 12C0 17.302 3.438 21.8 8.207 23.387C8.806 23.498 9 23.126 9 22.81V20.576C5.662 21.302 4.967 19.16 4.967 19.16C4.421 17.773 3.634 17.404 3.634 17.404C2.545 16.659 3.717 16.675 3.717 16.675C4.922 16.759 5.556 17.912 5.556 17.912C6.626 19.746 8.363 19.216 9.048 18.909C9.155 18.134 9.466 17.604 9.81 17.305C7.145 17 4.343 15.971 4.343 11.374C4.343 10.063 4.812 8.993 5.579 8.153C5.455 7.85 5.044 6.629 5.696 4.977C5.696 4.977 6.704 4.655 8.997 6.207C9.954 5.941 10.98 5.808 12 5.803C13.02 5.808 14.047 5.941 15.006 6.207C17.297 4.655 18.303 4.977 18.303 4.977C18.956 6.63 18.545 7.851 18.421 8.153C19.191 8.993 19.656 10.064 19.656 11.374C19.656 15.983 16.849 16.998 14.177 17.295C14.607 17.667 15 18.397 15 19.517V22.81C15 23.129 15.192 23.504 15.801 23.386C20.566 21.797 24 17.3 24 12C24 5.373 18.627 0 12 0Z" />
    </symbol>

    <!-- .NET logo -->
    <symbol id="dotnet" viewBox="0 0 32 32" fill="currentColor">
      <path d="M24.7 8.2h-6.7v3.4h6.7v12.6h-6.7v3.4h10.1V8.2h-3.4z"/>
      <path d="M15.1 15.8c-1.2 0-2.1 1-2.1 2.2s.9 2.2 2.1 2.2 2.1-1 2.1-2.2-.9-2.2-2.1-2.2z"/>
      <path d="M11.2 8.2H.6v3.4h4.1l-4.1 8.2v7.8h10.6v-3.4H4.5l6.7-13.4V8.2z"/>
    </symbol>

    <!-- Azure logo -->
    <symbol id="azure" viewBox="0 0 32 32" fill="currentColor">
      <path d="M6.6 24.7l8.2-22.3h6.8L11.2 24.7H6.6z"/>
      <path d="M15.1 2.4l10.3 14.7H18.6l-3.5-12.3z"/>
      <path d="M25.4 17.1H12.8l7.8-5.5 4.8 5.5z"/>
      <path d="M6.6 24.7h18.8l-5.6 5H6.6v-5z"/>
    </symbol>

    <!-- LinkedIn logo -->
    <symbol id="linkedin" viewBox="0 0 24 24" fill="currentColor">
      <path d="M20.447 20.452h-3.554v-5.569c0-1.328-.027-3.037-1.852-3.037-1.853 0-2.136 1.445-2.136 2.939v5.667H9.351V9h3.414v1.561h.046c.477-.9 1.637-1.85 3.37-1.85 3.601 0 4.267 2.37 4.267 5.455v6.286zM5.337 7.433c-1.144 0-2.063-.926-2.063-2.065 0-1.138.92-2.063 2.063-2.063 1.14 0 2.064.925 2.064 2.063 0 1.139-.925 2.065-2.064 2.065zm1.782 13.019H3.555V9h3.564v11.452zM22.225 0H1.771C.792 0 0 .774 0 1.729v20.542C0 23.227.792 24 1.771 24h20.451C23.2 24 24 23.227 24 22.271V1.729C24 .774 23.2 0 22.222 0h.003z"/>
    </symbol>

    <!-- IBM logo (full detail) -->
    <symbol id="ibm" viewBox="0 0 58 23" fill="currentColor">
      <path d="M58,21.4666667 L58,23 L50.3684211,23 L50.3684211,21.4666667 L58,21.4666667 Z M39.6842105,21.4666667 L39.6842105,23 L32.0526316,23 L32.0526316,21.4666667 L39.6842105,21.4666667 Z M45.6385329,21.4666667 L45.0245693,23 L44.41871,21.4666667 L45.6385329,21.4666667 Z M28.5421053,21.4666667 C27.4471432,22.4188667 26.0029202,23 24.3905263,23 L24.3905263,23 L12.2105263,23 L12.2105263,21.4666667 Z M10.6842105,21.4666667 L10.6842105,23 L0,23 L0,21.4666667 L10.6842105,21.4666667 Z M39.6842105,18.4 L39.6842105,19.9333333 L32.0526316,19.9333333 L32.0526316,18.4 L39.6842105,18.4 Z M46.8318522,18.4 L46.2377311,19.9333333 L43.8212353,19.9333333 L43.2226426,18.4 L46.8318522,18.4 Z M30.0684211,18.4 C29.9306437,18.9451697 29.7105614,19.4599515 29.4273684,19.9333333 L29.4273684,19.9333333 L12.2105263,19.9333333 L12.2105263,18.4 Z M10.6842105,18.4 L10.6842105,19.9333333 L0,19.9333333 L0,18.4 L10.6842105,18.4 Z M58,18.4 L58,19.9333333 L50.3684211,19.9333333 L50.3684211,18.4 L58,18.4 Z M54.9473684,15.3333333 L54.9473684,16.8666667 L50.3684211,16.8666667 L50.3684211,15.3333333 L54.9473684,15.3333333 Z M39.6842105,15.3333333 L39.6842105,16.8666667 L35.1052632,16.8666667 L35.1052632,15.3333333 L39.6842105,15.3333333 Z M48.0292704,15.3333333 L47.4295831,16.8666667 L42.6233978,16.8666667 L42.019006,15.3333333 L48.0292704,15.3333333 Z M29.8547368,15.3333333 C29.991899,15.8221879 30.0684211,16.3357152 30.0684211,16.8666667 L30.0684211,16.8666667 L24.4210526,16.8666667 L24.4210526,15.3333333 Z M19.8421053,15.3333333 L19.8421053,16.8666667 L15.2631579,16.8666667 L15.2631579,15.3333333 L19.8421053,15.3333333 Z M7.63157895,15.3333333 L7.63157895,16.8666667 L3.05263158,16.8666667 L3.05263158,15.3333333 L7.63157895,15.3333333 Z M54.9473684,12.2666667 L54.9473684,13.8 L50.3684211,13.8 L50.3684211,12.2666667 L54.9473684,12.2666667 Z M39.6842105,12.2666667 L39.6842105,13.8 L35.1052632,13.8 L35.1052632,12.2666667 L39.6842105,12.2666667 Z M49.2252679,12.2666667 L48.6284686,13.8 L41.4089474,13.8 L40.8168134,12.2666667 L49.2252679,12.2666667 Z M27.9773684,12.2666667 C28.5037637,12.6994848 28.9570701,13.2181697 29.3052632,13.8 L29.3052632,13.8 L15.2631579,13.8 L15.2631579,12.2666667 Z M7.63157895,12.2666667 L7.63157895,13.8 L3.05263158,13.8 L3.05263158,12.2666667 L7.63157895,12.2666667 Z M44.5987396,9.2 L45.0263158,10.4393515 L45.4535426,9.2 L54.9473684,9.2 L54.9473684,10.7333333 L50.3684211,10.7333333 L50.3684211,9.32433939 L49.8494737,10.7333333 L40.1878947,10.7333333 L39.6842105,9.3242 L39.6842105,10.7333333 L35.1052632,10.7333333 L35.1052632,9.2 L44.5987396,9.2 Z M7.63157895,9.2 L7.63157895,10.7333333 L3.05263158,10.7333333 L3.05263158,9.2 L7.63157895,9.2 Z M29.3052632,9.2 C28.9570701,9.7818303 28.5037637,10.3003758 27.9773684,10.7333333 L27.9773684,10.7333333 L15.2631579,10.7333333 L15.2631579,9.2 Z M54.9473684,6.13333333 L54.9473684,7.66666667 L45.9831118,7.66666667 L46.5234001,6.13333333 L54.9473684,6.13333333 Z M43.534302,6.13333333 L44.0745993,7.66666667 L35.1052632,7.66666667 L35.1052632,6.13333333 L43.534302,6.13333333 Z M30.0684211,6.13333333 C30.0684211,6.66414545 29.991899,7.17767273 29.8547368,7.66666667 L29.8547368,7.66666667 L24.4210526,7.66666667 L24.4210526,6.13333333 Z M19.8421053,6.13333333 L19.8421053,7.66666667 L15.2631579,7.66666667 L15.2631579,6.13333333 L19.8421053,6.13333333 Z M7.63157895,6.13333333 L7.63157895,7.66666667 L3.05263158,7.66666667 L3.05263158,6.13333333 L7.63157895,6.13333333 Z M42.4774196,3.06666667 L43.0079113,4.6 L32.0527757,4.6 L32.0526316,3.06666667 L42.4774196,3.06666667 Z M58,3.06666667 L58,4.6 L47.0390632,4.6 L47.5903678,3.06666667 L58,3.06666667 Z M29.4273684,3.06666667 C29.7105614,3.54004848 29.9306437,4.0548303 30.0684211,4.6 L30.0684211,4.6 L12.2105263,4.6 L12.2105263,3.06666667 Z M10.6842105,3.06666667 L10.6842105,4.6 L0,4.6 L0,3.06666667 L10.6842105,3.06666667 Z M41.4056725,0 L41.9462722,1.53333333 L32.05278,1.53333333 L32.0526316,0 L41.4056725,0 Z M58,0 L58,1.53333333 L48.1188427,1.53333333 L48.6466706,0 L58,0 Z M24.3905263,0 C25.9912083,0 27.4472798,0.581133333 28.5421053,1.53333333 L28.5421053,1.53333333 L12.2105263,1.53333333 L12.2105263,0 Z M10.6842105,0 L10.6842105,1.53333333 L0,1.53333333 L0,0 L10.6842105,0 Z"/>
    </symbol>

    <!-- musicMagpie logo (full detail) -->
    <symbol id="musicmagpie" viewBox="0 0 91 91" fill="currentColor">
      <path d="M35.2971,52.0674 L36.4051,49.3374 C36.6001,48.8524 36.3641,48.3014 35.8791,48.1074 L31.3981,46.3134 C30.7781,46.0654 30.6041,45.2714 31.0621,44.7854 L44.2861,30.2924 C43.9991,19.1494 34.6401,15.1794 34.6401,15.1794 C21.0341,23.9944 15.2551,57.5364 15.2551,57.5364 C13.1971,30.1324 33.1741,10.4974 33.1741,10.4974 L33.1051,10.4994 C35.1201,8.3844 37.5481,6.0284 39.4251,4.1664 C40.3801,3.2194 40.3871,1.6804 39.4421,0.7244 C38.4931,-0.2336 36.9501,-0.2436 35.9941,0.7074 C34.3161,2.3784 31.7121,5.0044 29.5171,7.3714 C29.5171,7.3714 26.3331,10.4424 23.1231,11.0654 L23.1251,11.0704 C5.2991,13.7164 2.4281,26.9044 2.4281,26.9044 C-7.7789,55.0104 17.4921,80.9694 17.4921,80.9694 C20.9851,66.5524 31.2001,56.3614 31.2001,56.3614 C32.7301,54.9564 34.1081,53.4714 35.2971,52.0674"/>
      <path d="M62.6814,10.0308 C59.1894,24.4478 48.9734,34.6378 48.9734,34.6378 C46.5044,36.9078 44.4314,39.3798 42.9104,41.3918 L42.6894,41.9108 C42.4954,42.3968 42.7314,42.9468 43.2164,43.1408 L47.6974,44.9348 C48.3164,45.1828 48.4914,45.9778 48.0334,46.4628 L35.8894,59.6618 C35.5944,71.6028 45.5344,75.8208 45.5344,75.8208 C59.1394,67.0058 64.9184,33.4638 64.9184,33.4638 C66.9774,60.8678 46.9994,80.5028 46.9994,80.5028 L47.0694,80.5008 C45.0544,82.6158 42.6254,84.9718 40.7484,86.8338 C39.7934,87.7808 39.7864,89.3198 40.7324,90.2758 C41.6804,91.2338 43.2234,91.2428 44.1794,90.2928 C45.8584,88.6218 48.4624,85.9958 50.6564,83.6288 C50.6564,83.6288 53.8414,80.5578 57.0514,79.9348 L57.0484,79.9288 C74.8744,77.2838 77.7454,64.0948 77.7454,64.0948 C87.9524,35.9888 62.6814,10.0308 62.6814,10.0308"/>
    </symbol>

    <!-- Bott & Company logo (full detail with transparent whites) -->
    <symbol id="bott" viewBox="0 0 244.8 244.8">
      <!-- White background shape (transparent to show page background) -->
      <path d="M244.2,176.5c1.9,5.9-1.4,12.4-7.4,14.2L68.3,244.2c-5.9,1.9-12.4-1.4-14.2-7.4L0.5,68.3 C-1.4,62.3,2,55.9,7.9,54L176.5,0.5c5.9-1.9,12.4,1.4,14.2,7.4L244.2,176.5z" fill="transparent"/>
      <!-- Blue sections -->
      <path d="M39.2,44.1L7.9,54C2,55.9-1.4,62.3,0.5,68.3l38.7,121.9V44.1z" fill="currentColor"/>
      <path d="M244.2,176.5L190.7,7.9c-1.9-5.9-8.3-9.3-14.2-7.4L63.6,36.4h54.9c37.9,0,61.5,16.5,61.5,43.1 c0,18.5-11.3,33-29.8,37.9c22.4,4.2,35.9,20.9,35.9,43.5c0,29.5-25.1,47.7-64.9,47.7H45.1l9,28.3c1.9,5.9,8.3,9.3,14.2,7.4 l168.6-53.5C242.8,188.8,246.1,182.4,244.2,176.5z" fill="currentColor"/>
      <path d="M140.1,86.6c0-11.8-8.9-18.7-23.6-18.5H78.1v37.6h38.4C131.2,105.8,140.1,98.6,140.1,86.6z" fill="currentColor"/>
      <path d="M78.1,176.9h38.4c18.2,0,29.5-7.6,29.5-20.9c0-12.5-11.3-20.2-29.5-19.9H78.1V176.9z" fill="currentColor"/>
    </symbol>


    <!-- ASFC logo (college crest SVG) -->
    <symbol id="asfc" viewBox="0 0 670 596" fill="currentColor">
      <path fill="currentColor" opacity="1.000000" stroke="none" 
      	d="
      M337.571533,0.999997 
      	C338.337982,1.994319 338.377258,3.321839 339.058868,3.932867 
      	C348.897797,12.753214 359.029297,21.256807 368.675476,30.280182 
      	C380.785126,41.607948 392.575287,53.280697 404.376556,64.932930 
      	C408.977661,69.475845 413.264496,74.340019 417.634674,79.112579 
      	C419.891876,81.577599 419.698334,83.308983 416.509827,85.261223 
      	C407.612030,90.709145 398.997253,96.617043 390.210052,102.248672 
      	C384.026093,106.211929 377.623016,109.842567 371.537476,113.947418 
      	C365.349487,118.121384 359.354065,122.594070 353.416809,127.122726 
      	C348.073425,131.198395 343.038391,135.686737 337.596771,139.618607 
      	C336.413452,140.473618 333.533844,140.477417 332.358765,139.615128 
      	C321.047974,131.315216 310.052795,122.584061 298.715729,114.321503 
      	C293.022278,110.172035 286.776398,106.786522 280.843353,102.957893 
      	C276.523834,100.170486 272.347900,97.160751 268.033203,94.365578 
      	C264.110596,91.824417 260.232605,89.150177 256.072693,87.055321 
      	C250.400467,84.198883 249.786835,81.855331 254.046234,77.440941 
      	C260.913025,70.324303 267.546387,62.976120 274.557739,56.006828 
      	C285.643524,44.987553 296.844086,34.077328 308.219238,23.357765 
      	C316.143585,15.890124 324.441589,8.818987 332.286316,1.285365 
      	C333.714355,1.000000 335.428711,1.000000 337.571533,0.999997 
      z"/>




      <path fill="currentColor" opacity="1.000000" stroke="none" 
      	d="
      M591.466125,597.000000 
      	C586.247314,591.764099 581.651855,586.373535 576.697083,581.336426 
      	C571.902344,576.461975 566.854980,571.816345 561.692322,567.330688 
      	C558.549194,564.599731 554.851074,562.515625 551.631348,559.862976 
      	C547.668518,556.598083 544.079712,552.876282 540.089844,549.647888 
      	C530.569946,541.945007 520.992249,534.308167 511.280731,526.849243 
      	C502.900970,520.413147 494.477753,514.005432 485.757233,508.048584 
      	C476.066620,501.429047 466.126068,495.155640 456.095978,489.057892 
      	C444.470245,481.990082 432.661652,475.220032 420.869598,468.429871 
      	C412.423889,463.566620 404.055847,458.515747 395.326447,454.211121 
      	C384.193115,448.721130 372.728302,443.903717 361.418274,438.770233 
      	C360.994751,438.578003 360.695648,438.111725 359.498749,436.976929 
      	C371.150787,433.197052 382.236633,429.578430 393.339447,426.012726 
      	C396.694794,424.935150 400.081116,423.944794 403.481476,423.018127 
      	C411.658020,420.789825 419.810242,418.451355 428.049225,416.478699 
      	C436.502533,414.454712 445.024353,412.686951 453.574554,411.127014 
      	C454.999390,410.867065 457.145813,411.818573 458.239990,412.922638 
      	C467.221008,421.984924 475.993408,431.253357 484.907776,440.382355 
      	C490.895325,446.514008 497.274445,452.283051 503.005798,458.640350 
      	C511.159393,467.684540 519.006897,477.014709 526.748352,486.417633 
      	C534.526123,495.864624 542.150818,505.445587 549.586914,515.163452 
      	C556.004639,523.550415 562.040710,532.228638 568.287781,540.747131 
      	C573.068970,547.266724 578.133118,553.590454 582.671570,560.272949 
      	C587.060791,566.735718 590.841614,573.608154 595.071533,580.183716 
      	C598.575989,585.631653 602.345154,590.909302 605.998535,596.631226 
      	C601.310730,597.000000 596.621521,597.000000 591.466125,597.000000 
      z"/>






      <path fill="currentColor" opacity="1.000000" stroke="none" 
      	d="
      M65.463181,597.000000 
      	C65.997368,594.670837 66.726280,592.176147 68.041656,590.043030 
      	C72.250061,583.218384 76.567757,576.455017 81.047195,569.805298 
      	C85.835045,562.697754 90.850243,555.743164 95.774429,548.727661 
      	C99.826752,542.954224 103.722366,537.060974 107.986450,531.448059 
      	C115.942123,520.975830 124.083145,510.643463 132.207886,500.300720 
      	C138.435898,492.372528 144.538620,484.329865 151.102570,476.686340 
      	C156.987808,469.833160 163.498123,463.520660 169.597092,456.845734 
      	C174.125336,451.889893 178.223892,446.529816 182.888916,441.713074 
      	C192.503021,431.786255 202.333023,422.066895 212.188583,412.378510 
      	C213.083054,411.499176 214.949234,410.851501 216.121399,411.127502 
      	C229.225845,414.212799 242.332794,417.312836 255.337799,420.787903 
      	C267.989990,424.168701 280.532318,427.963074 293.107361,431.629181 
      	C298.767700,433.279388 304.390289,435.059296 311.528870,437.237762 
      	C303.036713,441.279205 295.994934,444.629211 288.954224,447.981506 
      	C282.339783,451.130859 275.672150,454.174347 269.126556,457.460846 
      	C260.996613,461.542755 252.885742,465.677246 244.920593,470.068298 
      	C238.055237,473.853027 231.384842,477.994568 224.666275,482.041504 
      	C216.834869,486.758820 208.859039,491.268921 201.283539,496.370331 
      	C191.628784,502.871948 182.295502,509.852631 172.855850,516.671448 
      	C166.573456,521.209534 160.165085,525.599121 154.134689,530.454651 
      	C142.242538,540.029846 130.858673,550.255493 118.733139,559.516357 
      	C106.450485,568.897156 95.216232,579.343567 84.282082,590.185059 
      	C82.088242,592.360291 79.717316,594.356934 77.714020,596.717957 
      	C73.975456,597.000000 69.950912,597.000000 65.463181,597.000000 
      z"/>






      <path fill="currentColor" opacity="1.000000" stroke="none" 
      	d="
      M31.464653,597.000000 
      	C31.779343,593.391724 32.129322,589.621948 33.414654,586.203918 
      	C38.192547,573.498230 43.267216,560.903992 48.251686,548.276245 
      	C52.150200,538.399719 55.969635,528.489746 60.042141,518.685181 
      	C62.111679,513.702698 64.695099,508.935455 66.987144,504.043274 
      	C70.353394,496.858368 73.549797,489.591309 77.041794,482.468719 
      	C79.568329,477.315399 82.606903,472.413330 85.139748,467.262817 
      	C87.369446,462.728729 88.946930,457.864441 91.298935,453.402374 
      	C94.060349,448.163605 97.446831,443.258636 100.385101,438.107849 
      	C106.380318,427.598328 112.067375,416.907532 118.286461,406.534241 
      	C120.427216,402.963562 122.391594,399.767395 128.734085,400.648621 
      	C145.744461,403.011993 162.999695,403.579987 180.139755,405.067535 
      	C184.109772,405.412109 188.008286,406.580933 192.916428,407.566589 
      	C190.769669,410.100769 189.143936,412.291138 187.246231,414.213013 
      	C179.144318,422.418152 170.634491,430.246582 162.892014,438.774048 
      	C153.199463,449.449280 144.067032,460.636139 134.778915,471.674622 
      	C126.447952,481.575623 118.089043,491.459259 110.013519,501.567108 
      	C103.538795,509.671265 97.450226,518.084961 91.228256,526.389771 
      	C86.534401,532.654907 81.715263,538.838013 77.293892,545.291931 
      	C73.149033,551.342346 69.494843,557.726929 65.544891,563.913513 
      	C63.093338,567.753174 60.429230,571.457092 57.976479,575.296021 
      	C55.213245,579.620911 52.627548,584.059021 49.873535,588.389954 
      	C48.136795,591.121094 46.233067,593.746155 44.702126,596.709351 
      	C40.643101,597.000000 36.286201,597.000000 31.464653,597.000000 
      z"/>





      <path fill="currentColor" opacity="1.000000" stroke="none" 
      	d="
      M625.464661,597.000000 
      	C623.506348,593.695068 622.353210,590.178284 620.454224,587.125488 
      	C615.079834,578.485596 609.604614,569.892822 603.785767,561.548950 
      	C597.262024,552.194153 590.228943,543.196289 583.584045,533.923828 
      	C577.582214,525.548645 572.097656,516.789246 565.852783,508.605377 
      	C558.508972,498.981415 550.611877,489.778534 542.916748,480.424347 
      	C536.491150,472.613403 530.138245,464.736816 523.508606,457.101624 
      	C519.255249,452.203156 514.512512,447.732819 510.071716,442.993164 
      	C504.223297,436.751099 498.523743,430.368652 492.631622,424.168762 
      	C488.189270,419.494354 483.520020,415.036224 479.019867,410.415466 
      	C478.407776,409.786896 478.191986,408.772400 477.364746,407.040771 
      	C483.657104,406.315704 489.364288,405.639984 495.075867,405.003723 
      	C507.071564,403.667419 519.063721,402.295044 531.069519,401.055267 
      	C535.948303,400.551483 540.978882,399.593903 545.703735,400.340637 
      	C548.046387,400.710846 550.230286,404.233337 551.821716,406.749817 
      	C554.886353,411.595978 557.453125,416.755280 560.271912,421.759064 
      	C568.094116,435.644867 576.067932,449.447235 583.721558,463.425079 
      	C587.531006,470.382263 590.888794,477.596405 594.239319,484.792816 
      	C598.924744,494.856140 603.466370,504.987549 607.969482,515.134216 
      	C612.231750,524.738220 616.646973,534.288879 620.481201,544.064514 
      	C624.948547,555.454590 628.891724,567.051331 632.995789,578.582153 
      	C635.072693,584.417725 637.003113,590.305603 638.999878,596.584900 
      	C634.643127,597.000000 630.286194,597.000000 625.464661,597.000000 
      z"/>






      <path fill="currentColor" opacity="1.000000" stroke="none" 
      	d="
      M657.463196,597.000000 
      	C655.010376,590.778320 653.285156,584.456482 650.974792,578.356323 
      	C646.515991,566.583862 641.737915,554.932007 637.070740,543.238770 
      	C633.757446,534.937500 630.482300,526.619690 627.057068,518.364502 
      	C623.039978,508.683105 619.032532,498.992065 614.719116,489.441467 
      	C612.353577,484.203857 609.249756,479.304993 606.685974,474.150330 
      	C602.363586,465.459686 598.253540,456.663574 593.956787,447.959900 
      	C592.052856,444.103241 589.982422,440.323700 587.863892,436.579132 
      	C582.507507,427.111542 577.124634,417.658264 571.653564,408.256805 
      	C570.192017,405.745361 568.375000,403.440765 566.247925,400.354523 
      	C568.127075,400.186584 569.172791,399.992310 570.213684,400.015289 
      	C584.292480,400.326050 598.372009,400.621704 612.446106,401.081909 
      	C613.638733,401.120880 615.485352,402.041229 615.859375,403.005432 
      	C619.664856,412.816650 623.479736,422.638123 626.798828,432.620728 
      	C631.740356,447.483032 636.411194,462.438965 640.960266,477.427002 
      	C645.420349,492.121796 649.877014,506.829254 653.796509,521.673340 
      	C657.810364,536.874390 661.353455,552.207458 664.750061,567.560791 
      	C666.841309,577.013672 668.272461,586.612549 670.000000,596.572937 
      	C665.975464,597.000000 661.950928,597.000000 657.463196,597.000000 
      z"/>





      <path fill="currentColor" opacity="1.000000" stroke="none" 
      	d="
      M0.999998,583.474121 
      	C2.329059,579.878052 4.139353,576.869568 4.906346,573.615173 
      	C8.850882,556.878174 12.258014,540.011658 16.375782,523.319336 
      	C20.245380,507.633026 24.419031,492.002075 29.106255,476.543030 
      	C33.179722,463.108307 38.131294,449.938629 42.745415,436.669434 
      	C46.309624,426.419495 49.985435,416.208313 53.522785,405.949249 
      	C54.032696,404.470398 54.044239,402.819672 54.380337,400.639191 
      	C70.482376,400.639191 86.530487,400.639191 103.296295,400.639191 
      	C65.298912,462.248138 36.075008,528.033630 12.688879,596.680115 
      	C9.070312,597.000000 5.140625,597.000000 1.000000,597.000000 
      	C1.000000,592.650818 1.000000,588.299561 0.999998,583.474121 
      z"/>





      <path fill="currentColor" opacity="1.000000" stroke="none" 
      	d="
      M335.057159,314.000122 
      	C339.845917,316.706116 344.339050,319.248627 348.582275,322.155945 
      	C355.137390,326.647278 361.585541,331.302124 367.960358,336.047089 
      	C374.369476,340.817596 380.720917,345.674530 386.941986,350.686737 
      	C398.316071,359.850708 409.647705,369.070862 420.841125,378.453522 
      	C424.459167,381.486267 427.455597,385.250580 430.982758,388.404724 
      	C433.940277,391.049500 437.256348,393.293335 440.719025,395.948883 
      	C422.121216,401.032379 404.339722,405.668091 386.701294,410.796082 
      	C375.678223,414.000793 364.914307,418.086548 353.950684,421.509735 
      	C347.250793,423.601654 340.410400,425.259003 333.588440,426.929077 
      	C332.451874,427.207336 331.021820,426.728851 329.836639,426.298859 
      	C316.026306,421.287781 302.428894,415.583984 288.389496,411.339020 
      	C273.524109,406.844269 258.239685,403.738098 243.146790,399.991333 
      	C238.800949,398.912476 234.484360,397.715790 229.746933,396.465607 
      	C232.097229,393.918823 234.091339,391.274933 236.550125,389.175171 
      	C248.740631,378.764984 260.928436,368.344086 273.369995,358.238190 
      	C281.031494,352.014923 289.155579,346.362000 297.055328,340.430817 
      	C305.238037,334.287109 313.306641,327.985870 321.611755,322.013000 
      	C325.742249,319.042480 330.290375,316.652618 335.057159,314.000122 
      z"/>
      <path fill="currentColor" opacity="1.000000" stroke="none" 
      	d="
      M532.000427,376.962769 
      	C533.600952,379.165985 535.159302,380.969788 536.717651,382.773621 
      	C536.454041,383.296082 536.190430,383.818512 535.926758,384.340973 
      	C530.419678,384.560638 524.876892,384.459137 519.412720,385.065308 
      	C507.139618,386.426819 494.908112,388.160645 482.654449,389.700958 
      	C476.196228,390.512787 469.740479,391.438873 463.254089,391.871674 
      	C461.404907,391.995087 459.039703,391.036163 457.618042,389.776001 
      	C451.126556,384.022217 445.011414,377.844055 438.523254,372.086334 
      	C431.189758,365.578552 423.652130,359.297058 416.112335,353.026550 
      	C407.655731,345.993530 399.203430,338.947479 390.544617,332.168457 
      	C385.098267,327.904480 379.261230,324.141357 373.626099,320.116272 
      	C366.155060,314.779907 358.710052,309.407196 350.471710,303.488129 
      	C352.771820,301.966431 355.070526,300.407715 357.406647,298.907227 
      	C364.959564,294.055939 372.442169,289.087646 380.112274,284.428528 
      	C387.183350,280.133240 394.401306,276.068420 401.669006,272.112244 
      	C406.695648,269.376007 411.967804,267.094025 417.035797,264.429474 
      	C421.563049,262.049225 425.834839,259.153442 430.455963,256.990784 
      	C434.122742,255.274750 437.257111,255.126511 440.402374,259.455872 
      	C445.514618,266.492798 451.929474,272.571960 457.645294,279.184387 
      	C467.649567,290.757996 477.749908,302.258911 487.411774,314.114807 
      	C494.878967,323.277649 501.859955,332.847382 508.821045,342.408081 
      	C513.079834,348.257294 516.861389,354.452423 520.916321,360.452271 
      	C523.728394,364.613098 526.648621,368.700653 529.504456,372.832123 
      	C530.350647,374.056335 531.141846,375.318604 532.000427,376.962769 
      z"/>
      <path fill="currentColor" opacity="1.000000" stroke="none" 
      	d="
      M233.474442,256.008301 
      	C241.295258,255.542923 246.137970,261.195648 252.187759,263.902588 
      	C260.902069,267.801697 269.248596,272.566376 277.577332,277.271027 
      	C285.369293,281.672485 292.933075,286.477875 300.598328,291.103668 
      	C304.967865,293.740570 309.417114,296.256439 313.671448,299.067474 
      	C315.335480,300.166962 316.764465,301.801392 317.812683,303.494202 
      	C318.009521,303.812073 316.018341,305.728973 314.824646,306.625305 
      	C304.403442,314.450653 293.941742,322.222198 283.475647,329.987518 
      	C277.590515,334.354065 271.444733,338.402954 265.822937,343.083344 
      	C256.042328,351.226166 246.605743,359.781006 236.968536,368.097748 
      	C230.374619,373.788269 223.655304,379.333435 217.061707,385.024261 
      	C215.632004,386.258209 214.534866,387.870178 213.224731,389.251251 
      	C209.132355,393.565063 204.246170,391.667358 199.490036,391.007263 
      	C191.923584,389.957123 184.365234,388.783539 176.766083,388.048767 
      	C164.538132,386.866425 152.275986,386.041168 140.037857,384.957062 
      	C138.016342,384.777985 136.043594,384.048523 133.340622,383.404968 
      	C136.715561,378.389252 139.853683,373.718231 142.999329,369.052277 
      	C147.533966,362.326080 151.981796,355.538910 156.638611,348.898285 
      	C161.011810,342.662140 165.488861,336.490723 170.133209,330.454712 
      	C178.002579,320.227325 185.883301,310.001068 194.053467,300.015106 
      	C201.135406,291.359222 208.546097,282.967041 215.960831,274.590485 
      	C221.537628,268.290283 227.351013,262.199524 233.474442,256.008301 
      z"/>





      <path fill="currentColor" opacity="1.000000" stroke="none" 
      	d="
      M247.923676,240.010101 
      	C256.101349,232.244751 263.650543,224.241013 271.760315,216.852585 
      	C285.693817,204.158401 299.936340,191.801468 314.132935,179.398865 
      	C320.042206,174.236328 326.056763,169.176147 332.289856,164.418518 
      	C333.468262,163.519073 336.490967,163.494095 337.661011,164.383423 
      	C343.832886,169.074600 349.682373,174.189743 355.646667,179.154236 
      	C362.800140,185.108551 370.082977,190.915573 377.070099,197.058960 
      	C382.266235,201.627625 387.053864,206.658600 392.073853,211.430618 
      	C396.308624,215.456223 400.681641,219.337784 404.874115,223.406113 
      	C409.859161,228.243607 414.700165,233.229279 419.643097,238.110718 
      	C420.650269,239.105331 421.833038,239.922150 423.787445,241.516373 
      	C417.072693,245.135605 410.670898,248.521591 404.330841,252.019547 
      	C396.094055,256.563965 387.877075,261.145966 379.706390,265.807892 
      	C372.492310,269.924011 365.268677,274.034821 358.205139,278.400146 
      	C351.162994,282.752258 344.376343,287.518555 337.320709,291.847351 
      	C336.140656,292.571350 333.788361,292.620422 332.610535,291.918884 
      	C322.142639,285.684113 311.810394,279.221222 301.452026,272.803131 
      	C293.349518,267.782684 285.451569,262.396240 277.121857,257.788635 
      	C269.213898,253.414337 260.764648,250.026459 252.772766,245.790939 
      	C250.620926,244.650513 249.267410,242.003815 247.923676,240.010101 
      z"/>







      <path fill="currentColor" opacity="1.000000" stroke="none" 
      	d="
      M240.685547,224.741669 
      	C237.066986,227.953445 233.740829,230.942917 230.789734,233.595306 
      	C206.221558,223.212524 181.886597,212.928299 157.062134,202.437210 
      	C158.192581,200.249893 159.468506,196.990479 161.400253,194.182205 
      	C169.178589,182.874374 176.942398,171.544449 185.129959,160.533783 
      	C192.545013,150.561935 200.423431,140.929260 208.247559,131.268539 
      	C214.962341,122.977570 221.915314,114.879929 228.707199,106.650780 
      	C230.895889,103.998940 233.078751,101.312607 234.952484,98.438751 
      	C236.868118,95.500610 238.830948,95.235085 241.676315,97.135155 
      	C254.538269,105.724014 267.506439,114.153915 280.359314,122.756180 
      	C287.892090,127.797791 295.319763,132.999664 302.719879,138.235275 
      	C307.845398,141.861618 312.675415,145.932159 317.960632,149.296509 
      	C321.164764,151.336121 320.094696,152.665054 318.109070,154.362366 
      	C313.605530,158.211990 309.078369,162.034378 304.533691,165.835449 
      	C298.878235,170.565582 293.011566,175.061279 287.567474,180.021912 
      	C279.401276,187.462982 271.579956,195.281052 263.505096,202.824402 
      	C256.808655,209.080063 249.935165,215.145844 243.201981,221.362778 
      	C242.277374,222.216492 241.710480,223.457611 240.685547,224.741669 
      z"/>








      <path fill="currentColor" opacity="1.000000" stroke="none" 
      	d="
      M479.183289,216.013855 
      	C472.726990,218.940979 466.719360,221.968414 460.593933,224.735077 
      	C453.805756,227.801102 446.909912,230.628799 440.382416,233.422684 
      	C410.201263,205.961166 379.834259,178.330551 349.389923,150.629562 
      	C356.002686,145.755890 363.001556,140.368317 370.243286,135.329758 
      	C376.536377,130.951233 383.146393,127.031067 389.534424,122.785095 
      	C393.300873,120.281647 396.830353,117.421112 400.601807,114.925873 
      	C410.088440,108.649368 419.565094,102.347282 429.262939,96.410233 
      	C431.050659,95.315788 433.769775,94.995987 435.174347,98.567078 
      	C436.318024,101.474930 438.855652,103.870071 440.919739,106.373375 
      	C446.044037,112.588081 451.314667,118.682632 456.410431,124.920288 
      	C464.905518,135.319016 473.675690,145.521484 481.649353,156.309662 
      	C489.594299,167.059006 496.665955,178.451706 504.199890,189.508224 
      	C506.296448,192.585052 508.737946,195.425003 510.895569,198.462845 
      	C511.888550,199.860916 512.578674,201.474075 513.338501,202.865738 
      	C501.775757,207.364105 490.677887,211.681625 479.183289,216.013855 
      z"/>













      <path fill="currentColor" opacity="1.000000" stroke="none" 
      	d="
      M573.316772,305.786896 
      	C576.452820,312.269653 579.395874,318.439148 582.167480,324.684723 
      	C586.514526,334.480682 590.708679,344.344452 595.039307,354.147827 
      	C597.857605,360.527649 600.868652,366.822632 603.664062,373.212189 
      	C605.060303,376.403656 606.166687,379.722015 607.794189,384.011078 
      	C604.162964,383.607544 601.431458,383.063446 598.695740,383.041504 
      	C586.698120,382.945190 574.667969,382.486877 562.714294,383.217896 
      	C556.792969,383.579956 553.997742,380.627289 551.318420,376.700439 
      	C544.537354,366.762146 538.071655,356.605865 531.177734,346.748047 
      	C523.298889,335.481903 515.255249,324.322296 506.981293,313.343872 
      	C499.830017,303.855011 492.363098,294.597015 484.835052,285.401245 
      	C478.767395,277.989380 472.447296,270.781647 466.146759,263.564026 
      	C462.762634,259.687225 459.150726,256.010132 455.708923,252.182404 
      	C454.312439,250.629395 453.095123,248.915298 451.600891,247.027664 
      	C456.578491,244.585953 461.169800,242.179779 465.887817,240.054962 
      	C473.230164,236.748230 480.600525,233.488342 488.069061,230.481995 
      	C493.967621,228.107651 500.033600,226.149689 506.021759,223.997314 
      	C510.961151,222.221939 515.835266,220.220367 520.872070,218.789963 
      	C522.233521,218.403336 524.865356,219.227600 525.580017,220.347458 
      	C530.865723,228.629791 535.989319,237.028366 540.824768,245.582077 
      	C547.044922,256.585297 552.991089,267.744507 558.975586,278.879364 
      	C563.728210,287.722076 568.360901,296.629211 573.316772,305.786896 
      z"/>






      <path fill="currentColor" opacity="1.000000" stroke="none" 
      	d="
      M127.324265,250.174194 
      	C132.998047,240.850372 138.381683,231.777008 143.792953,222.720184 
      	C144.748672,221.120605 145.841202,218.261185 146.833511,218.277222 
      	C149.782700,218.324844 152.808365,219.260757 155.633179,220.309830 
      	C163.392700,223.191574 171.124237,226.167267 178.753998,229.374268 
      	C185.597092,232.250565 192.264145,235.542740 199.057968,238.540131 
      	C204.148834,240.786194 209.270508,242.979828 214.471039,244.952789 
      	C217.216080,245.994202 217.967316,247.198273 215.927032,249.561996 
      	C209.700043,256.776154 203.377319,263.911621 197.299713,271.249908 
      	C188.654388,281.688568 180.216324,292.298645 171.647079,302.800720 
      	C165.202698,310.698639 158.483734,318.382660 152.281982,326.464996 
      	C148.083206,331.936981 144.687851,338.017670 140.718674,343.675659 
      	C136.125702,350.222809 131.191544,356.530914 126.611198,363.086487 
      	C123.873116,367.005341 121.405479,371.129303 119.041275,375.288940 
      	C116.408859,379.920502 113.854218,384.413147 107.304405,383.018127 
      	C106.666962,382.882355 105.975548,383.000000 105.309189,383.000000 
      	C91.419174,383.000000 77.529160,383.000000 63.021671,383.000000 
      	C63.652973,380.562744 64.081429,377.274261 65.340660,374.342682 
      	C69.745605,364.087524 74.450035,353.961273 79.016167,343.775055 
      	C83.107796,334.647400 87.032471,325.441925 91.289230,316.392334 
      	C93.998093,310.633514 97.239410,305.127502 100.133331,299.452759 
      	C104.518539,290.853760 108.576897,282.079407 113.207825,273.616913 
      	C117.525375,265.726959 122.409042,258.146820 127.324265,250.174194 
      z"/>
    </symbol>

    <!-- West Hill logo (mountain/hill silhouette) -->
    <symbol id="westhill" viewBox="0 0 100 60" fill="currentColor">
      <polygon points="10,50 30,20 50,35 70,10 90,50" fill="currentColor"/>
    </symbol>

    <!-- WHSmith logo (simplified W) -->
    <symbol id="whsmith" viewBox="0 0 100 60" fill="currentColor">
      <rect x="10" y="10" width="80" height="40" rx="8" fill="currentColor"/>
      <path d="M20 45 L30 20 L40 35 L50 20 L60 45 M65 20 L75 45" stroke="white" stroke-width="3" fill="none"/>
    </symbol>

  </defs>
</svg>
