<svg xmlns="http://www.w3.org/2000/svg"><defs><symbol xmlns="http://www.w3.org/2000/svg" id="resend" fill="none" class="text-neutral-900 dark:text-neutral-100" viewBox="0 0 77 19"><g fill="currentcolor" clip-path="url(#clip0_52_626)"><path d="M.972 17.813V1.188h7.344q1.54 0 2.796.712a5.1 5.1 0 0 1 1.967 1.876q.735 1.188.734 2.708 0 1.496-.735 2.731a5.2 5.2 0 0 1-1.966 1.924q-1.255.712-2.796.712H4.407v5.961zm9.406 0L6.16 10.308l3.649-.594 4.691 8.122zm-5.97-8.86H8.15q.64 0 1.114-.284.498-.309.758-.832.26-.546.26-1.21 0-.713-.307-1.236a2.04 2.04 0 0 0-.9-.807q-.592-.309-1.375-.309H4.407zm16.979 9.097q-2.039 0-3.578-.831a6.1 6.1 0 0 1-2.37-2.28q-.828-1.45-.829-3.325 0-1.473.474-2.684a6.2 6.2 0 0 1 1.327-2.09 5.7 5.7 0 0 1 2.014-1.377 6.5 6.5 0 0 1 2.559-.5q1.279.001 2.369.476a5.5 5.5 0 0 1 1.872 1.33 5.6 5.6 0 0 1 1.232 1.995q.426 1.14.379 2.47l-.024 1.045h-10.07l-.544-2.066h7.842l-.38.427v-.523a2.1 2.1 0 0 0-.426-1.14 2.4 2.4 0 0 0-.924-.807 2.64 2.64 0 0 0-1.279-.309q-1.042 0-1.777.404-.71.404-1.09 1.188t-.379 1.9q0 1.14.474 1.97.498.832 1.374 1.307.9.45 2.109.451.83 0 1.516-.261.687-.261 1.47-.902l1.61 2.256q-.687.617-1.516 1.045a8.5 8.5 0 0 1-1.706.617 7.3 7.3 0 0 1-1.73.214m10.968 0q-1.753 0-3.127-.57-1.35-.594-2.18-1.615l2.108-1.805q.71.783 1.612 1.14.9.333 1.8.333.355 0 .64-.072a2 2 0 0 0 .521-.237 1 1 0 0 0 .308-.38q.12-.238.119-.499a.92.92 0 0 0-.427-.808 4 4 0 0 0-.734-.308 14 14 0 0 0-1.28-.404q-1.208-.309-2.061-.712-.83-.428-1.327-.95a4 4 0 0 1-.663-1.07 3.8 3.8 0 0 1-.213-1.305q0-.855.379-1.544.378-.713 1.042-1.211.688-.5 1.564-.76.876-.285 1.848-.285t1.895.237a6.8 6.8 0 0 1 1.706.689 5.8 5.8 0 0 1 1.398 1.021l-1.8 1.995a5.8 5.8 0 0 0-.972-.736 5 5 0 0 0-1.09-.523 3.3 3.3 0 0 0-1.019-.19q-.402 0-.734.072a1.3 1.3 0 0 0-.521.237 1 1 0 0 0-.332.356 1.16 1.16 0 0 0 .024.974q.14.237.379.404.26.143.758.332.52.19 1.398.428 1.137.309 1.919.688.805.38 1.28.88.402.426.591.973.19.546.19 1.211 0 1.164-.663 2.066-.641.903-1.777 1.425-1.137.523-2.559.523m12.16 0q-2.037 0-3.577-.831a6.1 6.1 0 0 1-2.37-2.28q-.828-1.45-.829-3.325 0-1.473.474-2.684a6.2 6.2 0 0 1 1.327-2.09 5.7 5.7 0 0 1 2.014-1.377 6.5 6.5 0 0 1 2.559-.5q1.278.001 2.369.476a5.5 5.5 0 0 1 1.871 1.33 5.6 5.6 0 0 1 1.232 1.995q.427 1.14.38 2.47l-.024 1.045H39.87l-.544-2.066h7.842l-.38.427v-.523a2.1 2.1 0 0 0-.426-1.14 2.4 2.4 0 0 0-.924-.807 2.64 2.64 0 0 0-1.28-.309q-1.041 0-1.776.404-.71.404-1.09 1.188t-.379 1.9q0 1.14.474 1.97.498.832 1.374 1.307.9.45 2.109.451.83 0 1.516-.261.687-.261 1.469-.902l1.611 2.256q-.688.617-1.516 1.045a8.5 8.5 0 0 1-1.706.617 7.3 7.3 0 0 1-1.73.214m6.751-.237V5.249h3.222l.095 2.565-.664.285a3.8 3.8 0 0 1 .924-1.544 5.2 5.2 0 0 1 1.635-1.14 4.8 4.8 0 0 1 1.99-.427q1.422 0 2.37.57.97.57 1.445 1.733.497 1.14.497 2.826v7.695h-3.364V10.38q0-.855-.237-1.425t-.735-.831q-.473-.262-1.184-.238-.57 0-1.066.19-.474.165-.83.499a2.9 2.9 0 0 0-.544.76 2.3 2.3 0 0 0-.19.926v7.553h-3.364m18.458.236q-1.659 0-2.962-.831-1.28-.855-2.037-2.304-.735-1.473-.735-3.396 0-1.876.735-3.349.757-1.496 2.037-2.327 1.304-.855 2.962-.855.876 0 1.682.285.829.261 1.469.736.663.474 1.066 1.069.404.57.45 1.187l-.853.166V.238h3.388v17.574h-3.198l-.142-2.897.663.071a2.3 2.3 0 0 1-.426 1.14 4.1 4.1 0 0 1-1.02.998q-.615.427-1.42.689a5.7 5.7 0 0 1-1.66.237m.758-2.802q.948 0 1.658-.475a3.2 3.2 0 0 0 1.114-1.307q.403-.831.403-1.947 0-1.093-.403-1.924a3.2 3.2 0 0 0-1.114-1.306q-.71-.475-1.658-.475t-1.658.475q-.687.475-1.09 1.306-.38.83-.38 1.924 0 1.116.38 1.947.403.832 1.09 1.307.71.474 1.658.475"/></g><defs><clipPath id="clip0_52_626"><path fill="#fff" d="M0 0h77v19H0z"/></clipPath></defs></symbol><symbol xmlns="http://www.w3.org/2000/svg" id="linear" fill="none" class="text-neutral-900 dark:text-neutral-100" viewBox="0 0 78 20"><g clip-path="url(#clip0_52_620)"><path fill="currentColor" fill-rule="evenodd" d="M2.521 3.274a.3.3 0 0 0 .012.406L15.91 17.398a.28.28 0 0 0 .395.013 10.1 10.1 0 0 0 3.193-7.404C19.497 4.48 15.128 0 9.74 0 6.879 0 4.306 1.263 2.52 3.274M.85 5.878a.3.3 0 0 0 .06.33l12.535 12.856a.28.28 0 0 0 .322.061q.435-.202.845-.445a.296.296 0 0 0 .055-.46L1.732 4.955a.28.28 0 0 0-.448.056q-.237.42-.435.867M.09 9.559a.3.3 0 0 1-.084-.228q.038-.598.144-1.173a.278.278 0 0 1 .477-.144l11.057 11.34c.162.166.084.447-.14.49a10 10 0 0 1-1.144.148.28.28 0 0 1-.222-.087zm.678 2.793a.265.265 0 0 0-.452.253c.899 3.44 3.539 6.147 6.891 7.069.276.076.45-.258.248-.465zm38.546-6.845c.7 0 1.266-.584 1.266-1.303 0-.72-.567-1.304-1.266-1.304s-1.266.584-1.266 1.304.567 1.303 1.266 1.303M28.467 16.875V2.9h2.25v11.93h6.068v2.044zm16.016-5.702v5.702h-2.177V6.97h2.15v1.7l.027-.02a3.1 3.1 0 0 1 1.057-1.33q.728-.545 1.859-.545 1.002 0 1.822.46.82.45 1.312 1.322t.492 2.138v6.18h-2.178v-5.87q0-1.126-.583-1.707-.573-.59-1.54-.59-.62 0-1.13.262-.51.263-.81.806-.3.544-.3 1.398M64.2 16.706q.747.328 1.713.328.792 0 1.357-.206a2.7 2.7 0 0 0 .93-.572q.373-.356.591-.779h.037v1.398h2.086v-6.818q0-.723-.273-1.323a3 3 0 0 0-.793-1.04 3.5 3.5 0 0 0-1.239-.676 5.2 5.2 0 0 0-1.64-.244q-1.248 0-2.159.44-.902.433-1.412 1.164a3.1 3.1 0 0 0-.556 1.65h2.105q.036-.43.291-.769.255-.337.693-.525a2.4 2.4 0 0 1 1.011-.197q.574 0 .975.197a1.5 1.5 0 0 1 .628.535q.22.338.22.788v.075q0 .337-.229.497-.217.159-.747.234-.52.075-1.421.178-.738.085-1.421.254a4.3 4.3 0 0 0-1.221.497q-.528.329-.838.872-.31.544-.31 1.397 0 .985.437 1.651.438.657 1.185.994m3.526-1.66q-.53.29-1.303.29-.784 0-1.248-.337a1.12 1.12 0 0 1-.465-.947q0-.47.255-.76.264-.29.692-.46.428-.168.93-.234.365-.056.71-.112l.647-.122q.3-.066.51-.132a1 1 0 0 0 .32-.14v1.106q0 .582-.265 1.07-.255.477-.783.778m5.088 1.829V6.97h2.095v1.632h.028q.264-.844.829-1.285.573-.45 1.503-.45.227 0 .41.019.191.009.319.018v2.017a8 8 0 0 0-1.057-.075 1.96 1.96 0 0 0-.984.253q-.447.253-.71.778-.256.516-.256 1.304v5.693zm-34.593 0V6.97h2.177v9.904zm16.426-.44q1.048.665 2.487.665 1.111 0 2.023-.413a4.3 4.3 0 0 0 1.53-1.153 3.7 3.7 0 0 0 .793-1.707h-2.05a2.03 2.03 0 0 1-1.202 1.294 2.8 2.8 0 0 1-1.057.188q-.81 0-1.394-.375a2.4 2.4 0 0 1-.875-1.041 3.7 3.7 0 0 1-.298-1.389h7.004v-.6q0-1.144-.328-2.082a4.8 4.8 0 0 0-.93-1.632q-.6-.694-1.448-1.069a4.5 4.5 0 0 0-1.868-.375q-1.339 0-2.369.666-1.029.666-1.612 1.838t-.583 2.682q0 1.5.565 2.673a4.4 4.4 0 0 0 1.612 1.83m4.583-6.557a2.27 2.27 0 0 0-.857-.984q-.555-.348-1.312-.347-.747 0-1.302.347a2.35 2.35 0 0 0-.857.984q-.22.463-.28 1.05h4.887a3.1 3.1 0 0 0-.28-1.05" clip-rule="evenodd"/></g><defs><clipPath id="clip0_52_620"><path fill="#fff" d="M0 0h78v20H0z"/></clipPath></defs></symbol><symbol id="uol" fill="currentColor" viewBox="0 0 100 144.7"><defs><mask id="uol-mask"><path fill="#fff" d="M94.4 2.9S76.6 0 48.2 0 1.9 2.9 1.9 2.9c-4.1 18-6.3 111 46.3 141.8C101 113.7 98.4 20 94.4 3Z"/><path fill="#000" d="m73.8 76.4-1.5-.8.6 1.6-1.2-.7.3.8c-1.9 1.9-10.5-9.5-23.6 2.7-1.3 1.2-1.4 1.6-3 0-10.5-10.7-22.7-2-22.7-2l-.7-.5.4-1-1 .7.7-1.9-1.7.9.6-1.4-1 .4 7-17.4c9.5-8.4 20.5-.4 20.5-.4s11.8-8.4 20 .3l6.7 17.5ZM19 39.6c-14-7.1 6.5-21.5-6-19.4-.1-.4.2-1.8-.6-1.5.5 1 0 2.7-.4 3.8 1.2.6.1 2-.2 2.8 0 0-.3-.6-.5-.6-.5 1-1.2.6-2 1 .1-.6-.6-1 .1-2-.4 0-.7-.3-.8-.4 1.3-1.1.8-2 2.8-1.1l.5-2.2c-.4-.1-.6-.4-.7-1 0 0-2.6-.7-3.5.8 0 0-2.3-3.8 6.6-3 2.2-2.1 9.1.7 10.3-1.8 0 0-2 3.7-3.7 5s-5.6 7.9-.9 8.4c-3.4-8.3 4.2 3.8 7.5-5.3-.6-3.3 12.4-.8 17.5-5.4 0 0-.5 3.3-2 7.1l-3.4-.5 3.1 1.4a23 23 0 0 1-2.8 5l-3-1.6 2.3 2.3c-1.4 1.7-3.2 3-5.5 3.7l-2.2-4.2 1.1 4.4a11 11 0 0 1-3.5 0c2.4 2.7 4.5 5.9 4.7 9 0 0-1.6-3.7-4.8-4.2l.6 1.8s-3.2-1.8-4.9-1.3c-1.4 3-.4 6.8-.4 6.8 2.3.5 4.4 1.7 4.4 1.7-4.5-.4-8.3-1.1-11.2 1 .2-2.4 5.4-3.5 5.4-3.5.4-3.4-2.5-6-3.9-7m45 0c-14-7.1 6.5-21.5-6-19.4-.1-.4.2-1.8-.6-1.5.5 1 0 2.7-.4 3.8 1.2.6.1 2-.2 2.8 0 0-.3-.6-.5-.6-.5 1-1.2.6-2 1 .1-.6-.6-1 .1-2-.4 0-.7-.3-.8-.4 1.3-1.1.8-2 2.8-1.1l.5-2.2c-.4-.1-.6-.4-.7-1 0 0-2.6-.7-3.5.8 0 0-2.3-3.8 6.6-3 2.2-2.1 9.1.7 10.3-1.8 0 0-2 3.7-3.7 5s-5.6 7.9-.9 8.4c-3.4-8.3 4.2 3.8 7.5-5.3-.6-3.3 12.4-.8 17.5-5.4 0 0-.5 3.3-2 7.1l-3.4-.5 3.1 1.4a23 23 0 0 1-2.8 5l-3-1.6 2.3 2.3c-1.4 1.7-3.2 3-5.5 3.7l-2.2-4.2 1.1 4.4a11 11 0 0 1-3.5 0c2.4 2.7 4.5 5.9 4.7 9 0 0-1.6-3.7-4.8-4.2l.6 1.8s-3.2-1.8-4.9-1.3c-1.4 3-.4 6.8-.4 6.8 2.3.5 4.4 1.7 4.4 1.7-4.5-.4-8.3-1.1-11.2 1 .2-2.4 5.4-3.5 5.4-3.5.4-3.4-2.5-6-3.9-7m-27.6 84.6c-17.6-8.9 8.2-27.1-7.6-24.4-.1-.5.3-2.3-.8-1.9.6 1.3 0 3.4-.5 4.8 1.5.8.1 2.5-.3 3.5 0 0-.4-.8-.6-.8-.6 1.3-1.5.8-2.5 1.3.1-.8-.8-1.3.1-2.5-.5 0-.9-.4-1-.5 1.6-1.4 1-2.5 3.5-1.4l.6-2.8c-.5-.1-.8-.5-.9-1.3 0 0-3.3-.9-4.4 1 0 0-2.9-4.8 8.3-3.8 2.8-2.6 11.4.9 12.9-2.3 0 0-2.5 4.7-4.7 6.3-2.1 1.6-7 9.9-1.1 10.6-4.3-10.4 5.3 4.8 9.4-6.7-.8-4.2 15.6-1 22-6.8 0 0-.6 4.2-2.5 8.9l-4.3-.6 3.9 1.8a29 29 0 0 1-3.5 6.3l-3.8-2 2.9 2.9c-1.8 2.1-4 3.8-6.9 4.7l-2.8-5.3 1.4 5.5a14 14 0 0 1-4.4 0c3 3.4 5.7 7.4 5.9 11.3 0 0-2-4.7-6-5.3l.8 2.3s-4-2.3-6.2-1.6c-1.8 3.8-.5 8.5-.5 8.5 2.9.6 5.5 2.1 5.5 2.1-5.7-.5-10.4-1.4-14.1 1.3.3-3 6.8-4.4 6.8-4.4.5-4.3-3.1-7.5-4.9-8.8Z"/></mask></defs><path d="M94.4 2.9S76.6 0 48.2 0 1.9 2.9 1.9 2.9c-4.1 18-6.3 111 46.3 141.8C101 113.7 98.4 20 94.4 3Z" mask="url(#uol-mask)"/><path d="M39.5 89.8c-2.3-.8-3.5-.8-5.5.5.3 0 1.8-.7 2.2-.5 0 .6 1.3.3 1.5 0 .5.2 1.6.3 1.8 0M23.1 41l-1.5-.4c.6.6 1.4 1.3 1.5 2.1zm-5-23.6c-1.7-.6-2.8-.6-4.3.4.2 0 1.4-.5 1.8-.4 0 .5 1 .3 1 0 .5.2 1.4.3 1.6 0Zm26.3 102c.6.5 1.3 1.3 1.3 2v-2.1l-1.9-.5zM63 17.5c-2-.5-3-.5-4.5.5.2 0 1.4-.5 1.8-.4 0 .5 1 .3 1 0 .5.2 1.4.3 1.6 0Z"/></symbol></defs></svg>